<?xml version="1.0" encoding="utf-8"?>
<!-- Generator: Adobe Illustrator 22.1.0, SVG Export Plug-In . SVG Version: 6.00 Build 0)  -->
<svg version="1.1" id="Layer_1" xmlns="http://www.w3.org/2000/svg" x="0px" y="0px"
     viewBox="0 0 766.5 301.7" style="enable-background:new 0 0 766.5 301.7;" xml:space="preserve">
<style type="text/css">
	.st0{fill:#2A7C70;}
	.st1{fill:#40A095;}
	.st2{fill:#6AC2BE;}
	.st3{fill:#333333;}
</style>
<g>
	<g>
		<polygon class="st0" points="304,255.3 151.6,164.4 0,255.3 81.4,301.7 151.6,260.6 223,301.7 		"/>
		<polygon class="st1" points="232.6,40.4 304,255.3 198.7,192.5 151.6,81.2 		"/>
		<polygon class="st1" points="70.5,40.4 0,255.3 105,192.4 151.6,81.2 		"/>
		<polygon class="st2" points="232.6,40.4 151.6,0 70.5,40.4 151.6,81.2 		"/>
	</g>
	<g>
		<path class="st3" d="M528.4,223.6c0,3.1-1.4,6.1-3.8,8.1c-2.4,2.2-5.6,3.4-8.8,3.5c-4.8,0.1-9.1-2.8-10.9-7.3l-12.6-28l-73.7,0.3
			l-12.5,28c-0.9,2.3-2.5,4.2-4.5,5.5c-1.9,1.2-4.2,1.8-6.4,1.7c-3.2,0-6.4-1.2-8.8-3.3c-2.5-1.9-4.1-4.8-4.2-8
			c0-1.9,0.4-3.8,1.2-5.5l57.3-124.3c1.2-2.7,3.2-4.9,5.7-6.4c5.1-3,11.5-3,16.6,0c2.6,1.5,4.6,3.7,5.7,6.4l58.5,124
			C527.9,220,528.4,221.8,528.4,223.6z M427.6,179.2h55.2L455,116.9L427.6,179.2z"/>
		<path class="st3" d="M607.2,131.8c2.2,2.1,3.3,5.1,3.1,8.1c0.2,3-0.8,6-2.8,8.3c-1.7,1.9-5,2.9-9.9,3.6l-6.2,0.7
			c-8.2,0.9-14.2,3.8-18,8.5c-3.9,5.1-6,11.4-5.7,17.8v44c0.2,3.5-1.2,7-3.8,9.3c-2.6,2.2-5.9,3.4-9.3,3.3c-3.4,0.1-6.8-1-9.3-3.3
			c-2.5-2.4-3.9-5.8-3.6-9.3l-0.3-81c-0.2-3.4,1.1-6.7,3.6-9c2.6-2.1,5.8-3.2,9.2-3.1c3.2-0.2,6.4,0.9,8.8,2.9
			c2.4,2.2,3.6,5.4,3.5,8.7v8.5c2.4-5.9,6.5-10.9,11.8-14.4c5.2-3.4,11.3-5.3,17.5-5.7h2.9C601.6,129.2,604.7,129.9,607.2,131.8z"/>
		<path class="st3" d="M624.5,106.9c-2.8-2.6-4.3-6.4-4.2-10.2c-0.2-3.8,1.3-7.5,4.2-10c6.6-5.1,15.8-5.1,22.5-0.2
			c2.9,2.5,4.5,6.2,4.3,10c0.2,3.8-1.3,7.6-4.2,10.2C640.5,111.9,631.2,112,624.5,106.9z M626.9,231.9c-2.5-2.4-3.9-5.8-3.6-9.3
			l-0.3-80.8c-0.2-3.5,1.1-6.8,3.6-9.2c2.6-2.1,6-3.3,9.3-3.1c3.4-0.1,6.7,1,9.3,3.1c2.6,2.3,4,5.7,3.8,9.2l0.3,80.8
			c0.2,3.5-1.2,7-3.8,9.3c-2.6,2.2-5.9,3.4-9.3,3.3C632.8,235.3,629.5,234.1,626.9,231.9z"/>
		<path class="st3" d="M686.8,228.7c-7.8-4.2-14.2-10.7-18.4-18.5c-8.7-17.8-8.8-38.6-0.2-56.4c4.1-7.8,10.4-14.3,18.2-18.5
			c17.3-8.7,37.7-8.8,55.1-0.2c7.8,4.2,14.2,10.7,18.4,18.5c4.5,8.7,6.7,18.4,6.6,28.2c0.3,9.8-1.9,19.5-6.2,28.2
			c-4,7.9-10.4,14.4-18.2,18.7c-17.3,8.7-37.7,8.8-55.1,0.2L686.8,228.7z M733.5,206.4c4.4-5.7,6.6-13.9,6.6-24.8s-2.3-19-6.8-24.6
			c-4.5-5.7-11-8.5-19.4-8.5c-8.4,0-14.9,2.8-19.4,8.5s-6.8,13.8-6.8,24.6s2.3,19,6.8,24.8c4.5,5.5,11,8.3,19.4,8.3
			C722.4,214.7,728.9,212,733.5,206.4L733.5,206.4z"/>
	</g>
</g>
</svg>
