<?xml version="1.0" encoding="utf-8"?>
<!-- Generator: Adobe Illustrator 22.1.0, SVG Export Plug-In . SVG Version: 6.00 Build 0)  -->
<svg version="1.1" id="Layer_1" xmlns="http://www.w3.org/2000/svg" x="0px" y="0px"
     viewBox="0 0 425.2 425.2" style="enable-background:new 0 0 425.2 425.2;" xml:space="preserve">
<style type="text/css">
	.st0{fill:#2A7C70;}
	.st1{fill:#40A095;}
	.st2{fill:#6AC2BE;}
	.st3{fill:#333333;}
</style>
<g>
	<polygon class="st0" points="334.2,239.3 212.3,166.6 91,239.3 156.1,276.5 212.3,243.6 269.4,276.5 	"/>
	<polygon class="st1" points="277,67.4 334.2,239.3 250,189.1 212.3,100.1 	"/>
	<polygon class="st1" points="147.4,67.4 91,239.3 175,189 212.3,100.1 	"/>
	<polygon class="st2" points="277,67.4 212.3,35.1 147.4,67.4 212.3,100.1 	"/>
	<g>
		<path class="st3" d="M192,384.7c0,1.4-0.6,2.8-1.7,3.6c-1.1,1-2.5,1.5-4,1.6c-2.1,0-4.1-1.3-4.9-3.3l-5.7-12.6l-33,0.2l-5.6,12.6
			c-0.4,1-1.1,1.9-2,2.5c-0.9,0.5-1.9,0.8-2.9,0.8c-1.5,0-2.9-0.5-4-1.5c-1.1-0.8-1.8-2.2-1.9-3.6c0-0.9,0.2-1.7,0.5-2.5l25.7-55.7
			c0.5-1.2,1.4-2.2,2.6-2.9c2.3-1.3,5.1-1.3,7.4,0c1.1,0.7,2,1.7,2.6,2.9l26.2,55.5C191.8,383.1,192,383.9,192,384.7z M146.9,364.9
			h24.7L159.2,337L146.9,364.9z"/>
		<path class="st3" d="M227.3,343.6c1,0.9,1.5,2.3,1.4,3.6c0.1,1.4-0.3,2.7-1.2,3.7c-0.8,0.9-2.2,1.3-4.4,1.6l-2.8,0.3
			c-3.7,0.4-6.4,1.7-8.1,3.8c-1.8,2.3-2.7,5.1-2.6,8v19.7c0.1,1.6-0.5,3.1-1.7,4.2c-1.2,1-2.7,1.5-4.2,1.5c-1.5,0.1-3-0.5-4.2-1.5
			c-1.1-1.1-1.7-2.6-1.6-4.2l-0.2-36.3c-0.1-1.5,0.5-3,1.6-4c1.2-1,2.6-1.5,4.1-1.4c1.4-0.1,2.9,0.4,4,1.3c1.1,1,1.6,2.4,1.6,3.9
			v3.8c1.1-2.6,2.9-4.9,5.3-6.4c2.3-1.5,5-2.4,7.8-2.6h1.3C224.8,342.5,226.2,342.8,227.3,343.6z"/>
		<path class="st3" d="M235.1,332.5c-1.3-1.2-1.9-2.9-1.9-4.6c-0.1-1.7,0.6-3.3,1.9-4.5c3-2.3,7.1-2.3,10.1-0.1
			c1.3,1.1,2,2.8,1.9,4.5c0.1,1.7-0.6,3.4-1.9,4.6C242.3,334.7,238.1,334.8,235.1,332.5z M236.2,388.4c-1.1-1.1-1.7-2.6-1.6-4.2
			l-0.2-36.2c-0.1-1.5,0.5-3.1,1.6-4.1c1.2-1,2.7-1.5,4.2-1.4c1.5,0,3,0.4,4.2,1.4c1.2,1,1.8,2.6,1.7,4.1l0.2,36.2
			c0.1,1.6-0.5,3.1-1.7,4.2c-1.2,1-2.7,1.5-4.2,1.5C238.8,390,237.3,389.5,236.2,388.4z"/>
		<path class="st3" d="M263,387.1c-3.5-1.9-6.4-4.8-8.2-8.3c-3.9-8-3.9-17.3-0.1-25.3c1.8-3.5,4.7-6.4,8.1-8.3
			c7.8-3.9,16.9-3.9,24.7-0.1c3.5,1.9,6.4,4.8,8.2,8.3c2,3.9,3,8.2,2.9,12.6c0.1,4.4-0.8,8.7-2.8,12.6c-1.8,3.5-4.6,6.5-8.1,8.4
			C280,391,270.8,391,263,387.1L263,387.1z M283.9,377.1c2-2.5,2.9-6.2,2.9-11.1c0-4.9-1-8.5-3-11c-2-2.5-4.9-3.8-8.7-3.8
			s-6.7,1.3-8.7,3.8c-2,2.5-3,6.2-3,11c0,4.8,1,8.5,3,11.1c2,2.5,4.9,3.7,8.7,3.7S281.9,379.5,283.9,377.1L283.9,377.1z"/>
	</g>
</g>
</svg>
