<svg width="213" height="145" viewBox="0 0 213 145" fill="none" xmlns="http://www.w3.org/2000/svg">
<path fill-rule="evenodd" clip-rule="evenodd" d="M50 14.5C50 6.49187 56.4919 0 64.5 0H88.5C96.5081 0 103 6.49187 103 14.5C103 22.5081 96.5081 29 88.5 29H169.5C177.508 29 184 35.4919 184 43.5C184 51.5081 177.508 58 169.5 58H198.5C206.508 58 213 64.4919 213 72.5C213 80.5081 206.508 87 198.5 87H182.258C188.712 88.5542 193.507 94.3651 193.507 101.296C193.507 109.417 186.924 116 178.803 116H147.585C155.554 116.046 162 122.52 162 130.5C162 138.508 155.508 145 147.5 145H123.5C115.492 145 109 138.508 109 130.5C109 122.52 115.446 116.046 123.415 116H25.6338C17.5129 116 10.9296 109.417 10.9296 101.296C10.9296 93.1751 17.5129 86.5918 25.6338 86.5918H35.0695C28.7171 85.0508 24 79.3263 24 72.5C24 64.4919 30.4919 58 38.5 58H14.5C6.49188 58 0 51.5081 0 43.5C0 35.4919 6.49187 29 14.5 29H64.5C56.4919 29 50 22.5081 50 14.5Z" fill="#F5F7FA"/>
<path d="M160.095 111.922V105.302C160.095 104.084 159.082 103.096 157.832 103.096H49.1684C47.9181 103.096 46.9046 104.084 46.9046 105.302V111.922H40.1131C38.8628 111.922 37.8493 112.909 37.8493 114.128V125.16H169.151V114.128C169.151 112.909 168.137 111.922 166.887 111.922H160.095Z" fill="#CCFCE9"/>
<path d="M56.3425 53.4512H69.2877V103.096H56.3425V53.4512Z" fill="#CCFCE9"/>
<path d="M137.712 53.4512H150.658V103.096H137.712V53.4512Z" fill="#CCFCE9"/>
<path d="M84.0822 53.4512H97.0274V103.096H84.0822V53.4512Z" fill="#CCFCE9"/>
<path d="M109.973 53.4512H122.918V103.096H109.973V53.4512Z" fill="#CCFCE9"/>
<path d="M56.3425 53.4512H69.2877V60.806H56.3425V53.4512Z" fill="#6AF6C0"/>
<path d="M137.712 53.4512H150.658V60.806H137.712V53.4512Z" fill="#6AF6C0"/>
<path d="M84.0822 53.4512H97.0274V60.806H84.0822V53.4512Z" fill="#6AF6C0"/>
<path d="M109.973 53.4512H122.918V60.806H109.973V53.4512Z" fill="#6AF6C0"/>
<path d="M167.726 38.6721L106.069 15.1453C105.005 14.738 103.821 14.738 102.758 15.1453L41.1236 38.6721C40.1167 39.0576 39.5353 40.0826 39.7391 41.1127C39.943 42.1428 40.8744 42.8868 41.9571 42.8842H48.1069V49.4316C48.1069 50.6369 49.1155 51.614 50.3597 51.614H158.49C159.734 51.614 160.742 50.6369 160.742 49.4316V42.8842H166.892C167.975 42.8868 168.906 42.1428 169.11 41.1127C169.314 40.0826 168.733 39.0576 167.726 38.6721Z" fill="#CCFCE9"/>
<path d="M103.5 35.0646C106.053 35.0646 108.123 33.0066 108.123 30.4679C108.123 27.9291 106.053 25.8711 103.5 25.8711C100.947 25.8711 98.8767 27.9291 98.8767 30.4679C98.8767 33.0066 100.947 35.0646 103.5 35.0646Z" fill="#6AF6C0"/>
<path d="M37.8493 114.129H169.151V125.161H37.8493V114.129Z" fill="#6AF6C0"/>
<path d="M47.0959 44.2578H159.904V53.4514H47.0959V44.2578Z" fill="#6AF6C0"/>
<path d="M69.2877 108.613C68.2663 108.613 67.4384 109.642 67.4384 110.912V115.508C67.4384 116.778 68.2663 117.807 69.2877 117.807C70.309 117.807 71.137 116.778 71.137 115.508V110.912C71.137 109.642 70.309 108.613 69.2877 108.613Z" fill="#06C87D"/>
<path d="M58.1918 108.613C57.1704 108.613 56.3425 109.642 56.3425 110.912V115.508C56.3425 116.778 57.1704 117.807 58.1918 117.807C59.2131 117.807 60.0411 116.778 60.0411 115.508V110.912C60.0411 109.642 59.2131 108.613 58.1918 108.613Z" fill="#06C87D"/>
<path d="M80.3836 108.613C79.3622 108.613 78.5342 109.642 78.5342 110.912V115.508C78.5342 116.778 79.3622 117.807 80.3836 117.807C81.4049 117.807 82.2329 116.778 82.2329 115.508V110.912C82.2329 109.642 81.4049 108.613 80.3836 108.613Z" fill="#06C87D"/>
<path d="M91.4794 108.613C90.4581 108.613 89.6301 109.642 89.6301 110.912V115.508C89.6301 116.778 90.4581 117.807 91.4794 117.807C92.5008 117.807 93.3288 116.778 93.3288 115.508V110.912C93.3288 109.642 92.5008 108.613 91.4794 108.613Z" fill="#06C87D"/>
<path d="M102.575 108.613C101.554 108.613 100.726 109.642 100.726 110.912V115.508C100.726 116.778 101.554 117.807 102.575 117.807C103.597 117.807 104.425 116.778 104.425 115.508V110.912C104.425 109.642 103.597 108.613 102.575 108.613Z" fill="#06C87D"/>
<path d="M113.671 108.613C112.65 108.613 111.822 109.642 111.822 110.912V115.508C111.822 116.778 112.65 117.807 113.671 117.807C114.693 117.807 115.521 116.778 115.521 115.508V110.912C115.521 109.642 114.693 108.613 113.671 108.613Z" fill="#06C87D"/>
<path d="M124.767 108.613C123.746 108.613 122.918 109.642 122.918 110.912V115.508C122.918 116.778 123.746 117.807 124.767 117.807C125.789 117.807 126.616 116.778 126.616 115.508V110.912C126.616 109.642 125.789 108.613 124.767 108.613Z" fill="#06C87D"/>
<path d="M137.712 108.613C136.691 108.613 135.863 109.642 135.863 110.912V115.508C135.863 116.778 136.691 117.807 137.712 117.807C138.734 117.807 139.562 116.778 139.562 115.508V110.912C139.562 109.642 138.734 108.613 137.712 108.613Z" fill="#06C87D"/>
<path d="M148.808 108.613C147.787 108.613 146.959 109.642 146.959 110.912V115.508C146.959 116.778 147.787 117.807 148.808 117.807C149.83 117.807 150.658 116.778 150.658 115.508V110.912C150.658 109.642 149.83 108.613 148.808 108.613Z" fill="#06C87D"/>
<path d="M103.5 24.0312C99.9253 24.0312 97.0274 26.9125 97.0274 30.4667C97.0274 34.021 99.9253 36.9022 103.5 36.9022C107.075 36.9022 109.973 34.021 109.973 30.4667C109.973 26.9125 107.075 24.0312 103.5 24.0312ZM103.5 33.1482C102.011 33.1482 100.803 31.9477 100.803 30.4667C100.803 28.9858 102.011 27.7853 103.5 27.7853C104.989 27.7853 106.197 28.9858 106.197 30.4667C106.197 31.9477 104.989 33.1482 103.5 33.1482Z" fill="#06C87D"/>
<path d="M166.5 109.065H162V104.581C162 102.104 159.985 100.097 157.5 100.097H153V55.2581H157.5C159.985 55.2581 162 53.2506 162 50.7742V46.2904H165.893C168.051 46.2849 169.902 44.753 170.303 42.6397C170.704 40.5264 169.542 38.427 167.535 37.6365L105.975 13.4684C104.385 12.8439 102.615 12.8439 101.025 13.4684L39.4425 37.6365C37.4312 38.4286 36.2698 40.5343 36.677 42.6507C37.0842 44.7672 38.9448 46.2956 41.1075 46.2904H45V50.7742C45 53.2506 47.0147 55.2581 49.5 55.2581H54V100.097H49.5C47.0147 100.097 45 102.104 45 104.581V109.065H40.5C38.0147 109.065 36 111.072 36 113.548V124.758C36 125.996 37.0074 127 38.25 127H168.75C169.993 127 171 125.996 171 124.758V113.548C171 111.072 168.985 109.065 166.5 109.065ZM148.5 100.097H139.5V55.2581H148.5V100.097ZM81 100.097H72V55.2581H81V100.097ZM85.5 55.2581H94.5V100.097H85.5V55.2581ZM99 55.2581H108V100.097H99V55.2581ZM112.5 55.2581H121.5V100.097H112.5V55.2581ZM126 55.2581H135V100.097H126V55.2581ZM49.5 50.7742V46.2904H132.75C133.993 46.2904 135 45.2866 135 44.0484C135 42.8102 133.993 41.8065 132.75 41.8065H41.1075L102.668 17.6384C103.195 17.4322 103.782 17.4322 104.31 17.6384L165.893 41.8065H159.75C158.507 41.8065 157.5 42.8102 157.5 44.0484V50.7742H49.5ZM58.5 55.2581H67.5V100.097H58.5V55.2581ZM166.5 122.516H40.5V113.548H47.25C48.4926 113.548 49.5 112.545 49.5 111.306V104.581H157.5V111.306C157.5 112.545 158.507 113.548 159.75 113.548H166.5V122.516Z" fill="#06C87D"/>
<path d="M141.719 46.0954H150.349C151.541 46.0954 152.507 45.2722 152.507 44.2567C152.507 43.2412 151.541 42.418 150.349 42.418H141.719C140.528 42.418 139.562 43.2412 139.562 44.2567C139.562 45.2722 140.528 46.0954 141.719 46.0954Z" fill="#06C87D"/>
</svg>
