<svg width="20" height="23" viewBox="0 0 20 23" fill="none" xmlns="http://www.w3.org/2000/svg">
<path d="M19.9985 4.69586H18.3444V14.3272H16.3896C16.7905 13.5126 16.991 12.5542 16.991 11.5959C16.991 9.63131 16.0888 7.85838 14.6853 6.66046V4.69586H13.0312L16.5399 0L19.9985 4.69586Z" fill="#77216D"/>
<path d="M7.01735 18.3041L3.50867 22.9999L0 18.3041H1.65409V8.67285H3.70917C3.25805 9.53535 3.00744 10.5416 3.00744 11.5478C3.00744 13.5124 3.90967 15.2853 5.31314 16.4833V18.3041H7.01735Z" fill="#77216D"/>
<path d="M9.07205 9.29622C9.22242 9.15247 9.47304 9.05664 9.82391 9.05664V10.7816C8.62094 10.3983 8.67106 9.63163 9.07205 9.29622Z" fill="#77216D"/>
<path d="M11.3248 12.5063C11.6255 12.7459 11.6756 13.3209 11.2746 13.6563C11.0741 13.8001 10.8235 13.8959 10.4727 13.9438V12.1709C10.8736 12.2667 11.1744 12.4105 11.3248 12.5063Z" fill="#77216D"/>
<path d="M10.0272 5.89355C6.71907 5.89355 4.0625 8.48109 4.0625 11.5957C4.0625 14.7103 6.71907 17.2979 10.0272 17.2979C13.3354 17.2979 15.992 14.7582 15.992 11.5957C15.992 8.43317 13.3354 5.89355 10.0272 5.89355ZM12.1826 14.4228C11.7315 14.8062 11.1801 14.9978 10.4784 14.9978V15.7166H9.82675V14.9978C8.8744 14.902 8.02229 14.5187 7.27043 13.8957L8.02229 13.0332C8.62378 13.5124 9.22527 13.7999 9.82675 13.8957V11.979C9.02477 11.7874 8.47341 11.5478 8.12254 11.2603C7.4208 10.7332 7.32056 9.3436 8.22279 8.57692C8.62378 8.19358 9.17514 8.00191 9.87688 7.954V7.47482H10.5285V8.00191C11.2803 8.04983 12.0322 8.28942 12.6838 8.76859L11.9821 9.67902C11.531 9.3436 11.0297 9.19985 10.4784 9.10401V10.9728H10.5285C11.3305 11.1645 11.932 11.404 12.2828 11.6915C12.9846 12.2186 13.0848 13.6082 12.1826 14.4228Z" fill="#77216D"/>
</svg>
