<svg width="20" height="20" viewBox="0 0 20 20" fill="none" xmlns="http://www.w3.org/2000/svg">
<path d="M10 0C4.475 0 0 4.475 0 10C0 15.525 4.475 20 10 20C15.525 20 20 15.525 20 10C20 4.475 15.525 0 10 0ZM10.7 8.8C11.7 9.25 12.4 9.675 12.825 10.175C13.3 10.7 13.525 11.35 13.525 12.1C13.525 12.825 13.275 13.475 12.75 14.05C12.35 14.5 11.75 14.825 11.2 15.05V16.675H8.8V15.15C8.1 15 7.325 14.7 6.725 14.25L6.35 13.95L7.475 11.95L8 12.375C8.5 12.775 9.1 12.975 9.825 12.975C10.25 12.975 10.575 12.875 10.8 12.7C11 12.55 11.075 12.375 11.075 12.15C11.075 11.625 10.25 11.2 9.75 11C7.775 10.15 6.75 9.1 6.75 7.85C6.75 7.1 6.975 6.475 7.475 5.925C7.85 5.5 8.425 5.2 8.925 5.025V3.375H11.325V4.975C11.825 5.1 12.45 5.325 13.025 5.625L13.55 5.925L12.275 8.025L11.775 7.6C11.425 7.3 10.9 7.125 10.225 7.125C9.875 7.125 9.625 7.2 9.425 7.35C9.275 7.45 9.2 7.575 9.2 7.775C9.225 7.725 9.25 8.15 10.7 8.8Z" fill="#77216D"/>
</svg>
