<svg width="20" height="20" viewBox="0 0 20 20" fill="none" xmlns="http://www.w3.org/2000/svg">
<path d="M16.9885 6.44619C17.8327 8.11124 18.0556 10.0227 17.6171 11.8374C17.1786 13.652 16.1074 15.2508 14.596 16.3466C13.0846 17.4424 11.232 17.9634 9.37103 17.816C7.51001 17.6686 5.76253 16.8625 4.44247 15.5424C3.12241 14.2224 2.31628 12.4749 2.16889 10.6139C2.0215 8.75286 2.5425 6.90026 3.63831 5.38887C4.73412 3.87747 6.33293 2.80632 8.14754 2.36782C9.96216 1.92932 11.8737 2.15221 13.5387 2.99644L15.1231 1.41204C13.028 0.162177 10.5482 -0.27866 8.15062 0.172522C5.75306 0.623704 3.60314 1.93578 2.10562 3.86172C0.608101 5.78767 -0.133714 8.19461 0.0198394 10.6294C0.173393 13.0642 1.21172 15.3589 2.93934 17.0814C4.66695 18.804 6.96468 19.8356 9.39992 19.982C11.8352 20.1284 14.2399 19.3795 16.1615 17.8763C18.083 16.3731 19.3887 14.2194 19.8329 11.8205C20.277 9.42162 19.8289 6.94314 18.5729 4.85166L16.9885 6.44619Z" fill="#77216D"/>
<path d="M19.4658 3.17864L17.0968 2.88757L16.8057 0.518555L14.2747 3.04955V4.7681L13.0902 5.95261L11.7665 7.2662L10.6175 8.41527C10.2543 8.26915 9.85185 8.25295 9.47814 8.36942C9.10444 8.48589 8.78243 8.72787 8.56662 9.05443C8.3508 9.381 8.25441 9.77209 8.29376 10.1615C8.33312 10.551 8.50579 10.9149 8.78258 11.1917C9.05937 11.4685 9.42327 11.6411 9.81272 11.6805C10.2022 11.7198 10.5933 11.6235 10.9198 11.4076C11.2464 11.1918 11.4884 10.8698 11.6048 10.4961C11.7213 10.1224 11.7051 9.71994 11.559 9.35681L12.7182 8.21786L14.6873 6.24874L15.2163 5.71976H16.9348L19.4658 3.17864Z" fill="#77216D"/>
<path d="M11.2632 6.9958L13.288 4.971C12.0438 4.15645 10.5417 3.83224 9.07228 4.06108C7.60286 4.28992 6.27052 5.05555 5.33293 6.20988C4.39534 7.3642 3.91913 8.82522 3.9964 10.3103C4.07368 11.7955 4.69895 13.1992 5.75127 14.2499C6.8036 15.3007 8.20821 15.9239 9.69344 15.999C11.1787 16.0741 12.639 15.5958 13.7919 14.6565C14.9449 13.7172 15.7086 12.3838 15.9353 10.914C16.1619 9.44428 15.8355 7.94269 15.0192 6.69967L12.9944 8.72447C13.289 9.41972 13.3328 10.1958 13.1181 10.9197C12.9035 11.6437 12.4438 12.2705 11.8178 12.6928C11.1918 13.1151 10.4385 13.3066 9.68686 13.2345C8.93521 13.1624 8.232 12.8313 7.69767 12.2977C7.16334 11.7642 6.83114 11.0615 6.75797 10.3099C6.6848 9.55836 6.87521 8.80475 7.29659 8.17816C7.71797 7.55156 8.3441 7.09097 9.06774 6.87527C9.79138 6.65957 10.5675 6.70217 11.2632 6.9958Z" fill="#77216D"/>
</svg>
