<?xml version="1.0" encoding="utf-8"?>
<!-- Generator: Adobe Illustrator 23.0.2, SVG Export Plug-In . SVG Version: 6.00 Build 0)  -->
<svg version="1.1" id="Layer_1" xmlns="http://www.w3.org/2000/svg" x="0px" y="0px"
     viewBox="0 0 187 171.8" style="enable-background:new 0 0 187 171.8;" xml:space="preserve">
<style type="text/css">
	.st0{fill:none;stroke:#3BA445;stroke-width:8;stroke-linecap:round;}
	.st1{fill:none;stroke:#65C66F;stroke-width:8;stroke-linecap:round;}
	.st2{fill:none;stroke:#7BD284;stroke-width:8;stroke-linecap:round;}
	.st3{fill:none;stroke:#94DE9C;stroke-width:8;stroke-linecap:round;}
	.st4{fill:none;stroke:#B9F1BF;stroke-width:8;stroke-linecap:round;}
	.st5{fill:#778F9B;}
	.st6{fill:#001226;}
	.st7{fill:#9E1B32;}
</style>
<g id="BM-certification-score-A" transform="translate(-42 -160)">
	<g id="Score-A" transform="translate(46 164)">
		<path id="Oval-14" class="st0" d="M148.1,157.2c14.3-12.4,24.3-28.9,28.6-47.4"/>
		<path id="Path" class="st1" d="M178.8,96c0.2-2.1,0.2-4.3,0.2-6.5c0-22.8-8.7-44.8-24.4-61.4"/>
		<path id="Path-2" class="st2" d="M143.6,18.2C111.7-6,67.6-6.1,35.7,18"/>
		<path id="Path-3" class="st3" d="M24.5,27.9C8.8,44.5,0,66.6,0,89.5c0,2.2,0.1,4.4,0.2,6.5"/>
		<path id="Path-4" class="st4" d="M2.3,109.9c4.3,18.5,14.4,35.1,28.8,47.5"/>
	</g>
	<g id="Small_business_grade">
		<path class="st5" d="M85.1,281c0,0.6-0.2,1.1-0.7,1.5s-1.1,0.5-1.9,0.5s-1.5-0.1-2-0.4v-1.1c0.3,0.2,0.7,0.3,1,0.4s0.7,0.1,1,0.1
			c0.5,0,0.8-0.1,1-0.3s0.3-0.4,0.3-0.7c0-0.3-0.1-0.5-0.3-0.7s-0.6-0.4-1.2-0.7c-0.7-0.3-1.1-0.6-1.4-0.9s-0.4-0.7-0.4-1.2
			c0-0.6,0.2-1.1,0.6-1.4s1-0.5,1.7-0.5c0.7,0,1.4,0.1,2,0.4l-0.4,1c-0.6-0.3-1.2-0.4-1.7-0.4c-0.4,0-0.7,0.1-0.9,0.2
			c-0.2,0.2-0.3,0.4-0.3,0.7c0,0.2,0,0.3,0.1,0.5c0.1,0.1,0.2,0.3,0.4,0.4s0.5,0.3,1,0.5c0.5,0.2,0.9,0.4,1.2,0.6s0.4,0.4,0.5,0.6
			S85.1,280.7,85.1,281z"/>
		<path class="st5" d="M90.9,282.9h-1.2v-3.3c0-0.4-0.1-0.7-0.2-0.9c-0.2-0.2-0.4-0.3-0.7-0.3c-0.4,0-0.8,0.1-1,0.4
			c-0.2,0.3-0.3,0.8-0.3,1.4v2.7h-1.1v-5.4h0.9l0.2,0.7h0.1c0.1-0.3,0.4-0.5,0.7-0.6s0.6-0.2,0.9-0.2c0.8,0,1.4,0.3,1.7,0.8h0.1
			c0.2-0.3,0.4-0.5,0.7-0.6s0.6-0.2,1-0.2c0.6,0,1.1,0.2,1.4,0.5s0.4,0.8,0.4,1.5v3.5h-1.1v-3.3c0-0.4-0.1-0.7-0.2-0.9
			c-0.2-0.2-0.4-0.3-0.7-0.3c-0.4,0-0.8,0.1-1,0.4c-0.2,0.3-0.3,0.7-0.3,1.3V282.9z"/>
		<path class="st5" d="M99.3,282.9l-0.2-0.8h0c-0.3,0.3-0.5,0.6-0.8,0.7c-0.3,0.1-0.6,0.2-1,0.2c-0.5,0-0.9-0.1-1.2-0.4
			s-0.4-0.7-0.4-1.2c0-0.6,0.2-1,0.6-1.3s1-0.4,1.9-0.5l0.9,0v-0.3c0-0.3-0.1-0.6-0.2-0.8c-0.2-0.2-0.4-0.3-0.7-0.3
			c-0.3,0-0.5,0-0.8,0.1s-0.5,0.2-0.7,0.3l-0.4-0.8c0.3-0.2,0.6-0.3,1-0.3c0.3-0.1,0.7-0.1,1-0.1c0.7,0,1.2,0.1,1.6,0.4
			s0.5,0.8,0.5,1.4v3.6H99.3z M97.6,282.2c0.4,0,0.8-0.1,1-0.3c0.3-0.2,0.4-0.6,0.4-1v-0.5l-0.7,0c-0.5,0-0.9,0.1-1.2,0.3
			c-0.2,0.2-0.4,0.4-0.4,0.7c0,0.2,0.1,0.4,0.2,0.6C97.1,282.1,97.3,282.2,97.6,282.2z"/>
		<path class="st5" d="M102.9,282.9h-1.1v-7.6h1.1V282.9z"/>
		<path class="st5" d="M105.7,282.9h-1.1v-7.6h1.1V282.9z"/>
		<path class="st5" d="M110,275.8h2.1c1,0,1.7,0.1,2.1,0.4s0.7,0.7,0.7,1.4c0,0.4-0.1,0.8-0.3,1s-0.5,0.5-0.9,0.5v0
			c0.5,0.1,0.9,0.3,1.1,0.6c0.2,0.3,0.4,0.7,0.4,1.1c0,0.6-0.2,1.1-0.7,1.5c-0.4,0.4-1.1,0.5-1.9,0.5H110V275.8z M111.2,278.8h1.1
			c0.5,0,0.8-0.1,1.1-0.2c0.2-0.2,0.3-0.4,0.3-0.8c0-0.3-0.1-0.6-0.4-0.7s-0.6-0.2-1.2-0.2h-1V278.8z M111.2,279.7v2.3h1.2
			c0.5,0,0.9-0.1,1.1-0.3c0.2-0.2,0.4-0.5,0.4-0.9c0-0.4-0.1-0.6-0.4-0.8s-0.6-0.3-1.2-0.3H111.2z"/>
		<path class="st5" d="M120.3,282.9l-0.2-0.7h-0.1c-0.2,0.3-0.4,0.4-0.7,0.6s-0.6,0.2-1,0.2c-0.7,0-1.1-0.2-1.5-0.5
			s-0.5-0.8-0.5-1.5v-3.5h1.2v3.3c0,0.4,0.1,0.7,0.3,0.9c0.2,0.2,0.4,0.3,0.8,0.3c0.5,0,0.8-0.1,1.1-0.4c0.2-0.3,0.3-0.8,0.3-1.4
			v-2.7h1.2v5.4H120.3z"/>
		<path class="st5" d="M126.5,281.4c0,0.5-0.2,0.9-0.6,1.2c-0.4,0.3-0.9,0.4-1.7,0.4c-0.7,0-1.3-0.1-1.7-0.3v-1
			c0.6,0.3,1.2,0.4,1.8,0.4c0.7,0,1.1-0.2,1.1-0.6c0-0.1,0-0.3-0.1-0.3s-0.2-0.2-0.4-0.3s-0.4-0.2-0.7-0.3c-0.6-0.2-1-0.5-1.3-0.7
			s-0.3-0.6-0.3-0.9c0-0.5,0.2-0.8,0.6-1.1c0.4-0.3,0.9-0.4,1.5-0.4c0.6,0,1.2,0.1,1.8,0.4l-0.4,0.9c-0.6-0.2-1.1-0.4-1.5-0.4
			c-0.6,0-0.9,0.2-0.9,0.5c0,0.2,0.1,0.3,0.2,0.4s0.5,0.3,1,0.5c0.4,0.2,0.8,0.3,1,0.5s0.4,0.3,0.4,0.5
			C126.4,280.9,126.5,281.2,126.5,281.4z"/>
		<path class="st5" d="M127.7,276.1c0-0.2,0.1-0.4,0.2-0.5s0.3-0.2,0.5-0.2c0.2,0,0.4,0.1,0.5,0.2s0.2,0.3,0.2,0.5
			c0,0.2-0.1,0.3-0.2,0.5c-0.1,0.1-0.3,0.2-0.5,0.2c-0.2,0-0.4-0.1-0.5-0.2C127.7,276.5,127.7,276.3,127.7,276.1z M128.9,282.9h-1.1
			v-5.4h1.1V282.9z"/>
		<path class="st5" d="M135.3,282.9h-1.2v-3.3c0-0.4-0.1-0.7-0.3-0.9s-0.4-0.3-0.8-0.3c-0.5,0-0.8,0.1-1.1,0.4s-0.3,0.8-0.3,1.4v2.7
			h-1.1v-5.4h0.9l0.2,0.7h0.1c0.2-0.3,0.4-0.5,0.7-0.6s0.6-0.2,1-0.2c1.3,0,1.9,0.7,1.9,2V282.9z"/>
		<path class="st5" d="M139.2,283c-0.8,0-1.5-0.2-2-0.7c-0.5-0.5-0.7-1.2-0.7-2c0-0.9,0.2-1.6,0.7-2.1s1-0.8,1.8-0.8
			c0.7,0,1.3,0.2,1.7,0.6s0.6,1,0.6,1.8v0.6h-3.6c0,0.5,0.2,0.9,0.4,1.2c0.3,0.3,0.6,0.4,1.1,0.4c0.3,0,0.6,0,0.9-0.1
			c0.3-0.1,0.6-0.2,0.9-0.3v0.9c-0.3,0.1-0.6,0.2-0.8,0.3S139.6,283,139.2,283z M139,278.3c-0.4,0-0.7,0.1-0.9,0.3
			c-0.2,0.2-0.4,0.6-0.4,1h2.5c0-0.4-0.1-0.8-0.3-1C139.7,278.4,139.4,278.3,139,278.3z"/>
		<path class="st5" d="M146.2,281.4c0,0.5-0.2,0.9-0.6,1.2c-0.4,0.3-0.9,0.4-1.7,0.4c-0.7,0-1.3-0.1-1.7-0.3v-1
			c0.6,0.3,1.2,0.4,1.8,0.4c0.7,0,1.1-0.2,1.1-0.6c0-0.1,0-0.3-0.1-0.3s-0.2-0.2-0.4-0.3s-0.4-0.2-0.7-0.3c-0.6-0.2-1-0.5-1.3-0.7
			c-0.2-0.2-0.3-0.6-0.3-0.9c0-0.5,0.2-0.8,0.6-1.1c0.4-0.3,0.9-0.4,1.5-0.4c0.6,0,1.2,0.1,1.8,0.4l-0.4,0.9
			c-0.6-0.2-1.1-0.4-1.5-0.4c-0.6,0-0.9,0.2-0.9,0.5c0,0.2,0.1,0.3,0.2,0.4c0.2,0.1,0.5,0.3,1,0.5c0.4,0.2,0.8,0.3,1,0.5
			s0.4,0.3,0.4,0.5C146.2,280.9,146.2,281.2,146.2,281.4z"/>
		<path class="st5" d="M151.1,281.4c0,0.5-0.2,0.9-0.6,1.2c-0.4,0.3-0.9,0.4-1.7,0.4c-0.7,0-1.3-0.1-1.7-0.3v-1
			c0.6,0.3,1.2,0.4,1.8,0.4c0.7,0,1.1-0.2,1.1-0.6c0-0.1,0-0.3-0.1-0.3s-0.2-0.2-0.4-0.3s-0.4-0.2-0.7-0.3c-0.6-0.2-1-0.5-1.3-0.7
			c-0.2-0.2-0.3-0.6-0.3-0.9c0-0.5,0.2-0.8,0.6-1.1c0.4-0.3,0.9-0.4,1.5-0.4c0.6,0,1.2,0.1,1.8,0.4l-0.4,0.9
			c-0.6-0.2-1.1-0.4-1.5-0.4c-0.6,0-0.9,0.2-0.9,0.5c0,0.2,0.1,0.3,0.2,0.4c0.2,0.1,0.5,0.3,1,0.5c0.4,0.2,0.8,0.3,1,0.5
			s0.4,0.3,0.4,0.5C151.1,280.9,151.1,281.2,151.1,281.4z"/>
		<path class="st5" d="M158,279.1h2.6v3.6c-0.4,0.1-0.8,0.2-1.2,0.3c-0.4,0.1-0.8,0.1-1.3,0.1c-1.1,0-1.9-0.3-2.5-1
			c-0.6-0.6-0.9-1.5-0.9-2.7c0-1.1,0.3-2,1-2.7c0.7-0.6,1.6-1,2.7-1c0.7,0,1.5,0.1,2.1,0.4l-0.4,1c-0.6-0.3-1.2-0.4-1.7-0.4
			c-0.8,0-1.4,0.2-1.8,0.7s-0.7,1.1-0.7,2c0,0.9,0.2,1.5,0.6,2c0.4,0.5,1,0.7,1.7,0.7c0.4,0,0.8,0,1.2-0.1v-1.8H158V279.1z"/>
		<path class="st5" d="M165,277.5c0.2,0,0.4,0,0.6,0l-0.1,1.1c-0.2,0-0.3-0.1-0.5-0.1c-0.5,0-0.8,0.1-1.1,0.4
			c-0.3,0.3-0.4,0.7-0.4,1.2v2.8h-1.1v-5.4h0.9l0.2,1h0.1c0.2-0.3,0.4-0.6,0.7-0.8C164.3,277.5,164.6,277.5,165,277.5z"/>
		<path class="st5" d="M169.9,282.9l-0.2-0.8h0c-0.3,0.3-0.5,0.6-0.8,0.7c-0.3,0.1-0.6,0.2-1,0.2c-0.5,0-0.9-0.1-1.2-0.4
			c-0.3-0.3-0.4-0.7-0.4-1.2c0-0.6,0.2-1,0.6-1.3s1-0.4,1.9-0.5l0.9,0v-0.3c0-0.3-0.1-0.6-0.2-0.8c-0.2-0.2-0.4-0.3-0.8-0.3
			c-0.3,0-0.5,0-0.8,0.1s-0.5,0.2-0.7,0.3l-0.4-0.8c0.3-0.2,0.6-0.3,1-0.3c0.3-0.1,0.7-0.1,1-0.1c0.7,0,1.2,0.1,1.6,0.4
			c0.4,0.3,0.5,0.8,0.5,1.4v3.6H169.9z M168.2,282.2c0.4,0,0.8-0.1,1-0.3c0.3-0.2,0.4-0.6,0.4-1v-0.5l-0.7,0c-0.5,0-0.9,0.1-1.2,0.3
			c-0.2,0.2-0.4,0.4-0.4,0.7c0,0.2,0.1,0.4,0.2,0.6C167.7,282.1,167.9,282.2,168.2,282.2z"/>
		<path class="st5" d="M174.1,283c-0.7,0-1.2-0.2-1.6-0.7s-0.6-1.2-0.6-2.1c0-0.9,0.2-1.6,0.6-2.1c0.4-0.5,0.9-0.7,1.6-0.7
			c0.7,0,1.2,0.3,1.6,0.8h0.1c-0.1-0.4-0.1-0.7-0.1-0.9v-2h1.2v7.6H176l-0.2-0.7h-0.1C175.4,282.8,174.9,283,174.1,283z
			 M174.5,282.1c0.5,0,0.8-0.1,1-0.4c0.2-0.3,0.3-0.7,0.3-1.3v-0.2c0-0.7-0.1-1.2-0.3-1.5s-0.6-0.4-1-0.4c-0.4,0-0.7,0.2-0.9,0.5
			c-0.2,0.3-0.3,0.8-0.3,1.4c0,0.6,0.1,1.1,0.3,1.4C173.7,282,174,282.1,174.5,282.1z"/>
		<path class="st5" d="M180.9,283c-0.8,0-1.5-0.2-2-0.7c-0.5-0.5-0.7-1.2-0.7-2c0-0.9,0.2-1.6,0.7-2.1s1-0.8,1.8-0.8
			c0.7,0,1.3,0.2,1.7,0.6s0.6,1,0.6,1.8v0.6h-3.6c0,0.5,0.2,0.9,0.4,1.2c0.3,0.3,0.6,0.4,1.1,0.4c0.3,0,0.6,0,0.9-0.1
			c0.3-0.1,0.6-0.2,0.9-0.3v0.9c-0.3,0.1-0.6,0.2-0.8,0.3S181.3,283,180.9,283z M180.7,278.3c-0.4,0-0.7,0.1-0.9,0.3
			c-0.2,0.2-0.4,0.6-0.4,1h2.5c0-0.4-0.1-0.8-0.3-1C181.4,278.4,181.1,278.3,180.7,278.3z"/>
		<path class="st5" d="M185.3,279.3h-0.7v-2.9h-1v-0.6h2.7v0.6h-1V279.3z M188.2,279.3l-0.9-2.7h0l0,0.6v2.1h-0.7v-3.5h1.1l0.9,2.6
			l0.9-2.6h1v3.5h-0.7v-2l0-0.6h0l-0.9,2.7H188.2z"/>
	</g>
	<path id="A" class="st6" d="M148.9,265l-3.7-12.2h-18.7l-3.7,12.2H111l18.1-51.6h13.3l18.2,51.6H148.9z M142.6,243.6
		c-3.4-11.1-5.4-17.4-5.8-18.8s-0.7-2.6-0.9-3.4c-0.8,3-3,10.4-6.6,22.3H142.6z"/>
	<g id="Equifax_er_rgb" transform="translate(94 316)">
		<path id="Shape" class="st7" d="M83.3,1.1c0.5,0,0.9,0.3,1.1,0.7c0.2,0.5,0.1,1-0.3,1.3c-0.3,0.3-0.9,0.5-1.3,0.3
			c-0.5-0.2-0.8-0.6-0.8-1.1c0-0.3,0.1-0.6,0.3-0.9C82.7,1.3,83,1.1,83.3,1.1z M83.3,1.3c-0.6,0-1,0.5-1,1.1c0,0.5,0.4,0.9,1,1
			c0.3,0,0.5-0.1,0.7-0.3c0.2-0.2,0.3-0.4,0.3-0.7c0-0.3-0.1-0.5-0.3-0.7C83.9,1.4,83.6,1.3,83.3,1.3z M83.1,3h-0.2V1.7
			c0.1,0,0.3,0,0.4,0c0.1,0,0.3,0,0.4,0.1c0.1,0.1,0.1,0.2,0.1,0.3c0,0.2-0.1,0.3-0.3,0.3c0.1,0,0.2,0.1,0.2,0.3
			c0,0.1,0,0.2,0.1,0.3h-0.2c-0.1-0.1-0.1-0.2-0.1-0.3c0-0.1,0-0.1-0.1-0.2c-0.1,0-0.1-0.1-0.2-0.1h-0.2V3z M83.1,2.3h0.2
			c0.2,0,0.3-0.1,0.3-0.2s-0.1-0.2-0.3-0.2h-0.2V2.3z"/>
		<path id="Shape-2" class="st7" d="M0.5,12L3.2,0.2h10.6l-0.5,2.4H7.4L7,4.5h5.1l-0.5,2.4H6.5L5.9,9.5h6L11.4,12H0.5z"/>
		<path id="Shape-3" class="st7" d="M13.3,5.1c1.1-4.2,4-4.1,7.4-4.1c2.4,0,6,0.1,5.4,3.7c0,0-0.1,1-0.4,2.2H22l7.5,8.9h-5l-3.2-3.8
			c-1,0.3-2.1,0.4-3.2,0.4c-2-0.1-5.6,0-5.4-3.4C12.8,7.6,13,6.3,13.3,5.1 M17.9,4.5c-0.5,1.3-0.8,2.6-1,4c-0.3,1.4,0.8,1.9,1.7,1.9
			c1,0,1.9-0.6,2.3-1.5c0.5-1.3,0.8-2.7,1-4C22.2,4.1,21.8,3.3,21,3c-0.3-0.1-0.5-0.1-0.8,0C19.2,2.9,18.3,3.5,17.9,4.5"/>
		<path id="Shape-4" class="st7" d="M28.1,1.5h4.3c0,0-1.4,6-1.7,7.5c0,0.3,0.2,0.7,0.4,0.9c0.3,0.2,0.6,0.4,0.9,0.3
			c0,0,1.7,0.3,2.1-1.1l1.7-7.6h4.4c0,0-1.7,7.6-2,8.5s-1.7,2.2-5,2.4c-0.9,0-1.8,0-2.7-0.1l-3.9-4.6C26.7,7.6,27.7,2.7,28.1,1.5"/>
		<path id="Shape-5" class="st7" d="M41.9,1.5h4.4L44,12h-4.3L41.9,1.5z"/>
		<path id="Shape-6" class="st7" d="M50.1,12h-4.4L48,1.5h9.5l-0.5,2h-5l-0.5,1.9h4.3l-0.4,2h-4.2L50.1,12z"/>
		<path id="Shape-7" class="st7" d="M56,12H53l7.4-10.5h5.3l1.1,8.5l3.6-3.2l-3.5-5.3h5.6l1.7,2.7l2.7-2.7h4.3l-5.6,4.8l3.6,5.6
			h-5.4L72,8.8l-3,3.1h-6.5l-0.2-2.3h-4.6L56,12z M59.1,7.4h2.8l-0.3-3.5L59.1,7.4z"/>
	</g>
</g>
</svg>
