<?xml version="1.0" encoding="utf-8"?>
<!-- Generator: Adobe Illustrator 23.0.2, SVG Export Plug-In . SVG Version: 6.00 Build 0)  -->
<svg version="1.1" id="Layer_1" xmlns="http://www.w3.org/2000/svg" x="0px" y="0px"
     viewBox="0 0 187 171.8" style="enable-background:new 0 0 187 171.8;" xml:space="preserve">
<style type="text/css">
	.st0{fill:none;stroke:#F2F4F7;stroke-width:8;stroke-linecap:round;}
	.st1{fill:none;stroke:#65C66F;stroke-width:8;stroke-linecap:round;}
	.st2{fill:none;stroke:#7BD284;stroke-width:8;stroke-linecap:round;}
	.st3{fill:none;stroke:#94DE9C;stroke-width:8;stroke-linecap:round;}
	.st4{fill:none;stroke:#B9F1BF;stroke-width:8;stroke-linecap:round;}
	.st5{fill:#001226;}
	.st6{fill:#9E1B32;}
	.st7{fill:#778F9B;}
</style>
<g id="BM-certification-score-B" transform="translate(-276 -160)">
	<g id="Score-A" transform="translate(280 164)">
		<path id="Oval-14" class="st0" d="M148.1,157.2c14.3-12.4,24.3-28.9,28.6-47.3"/>
		<path id="Path" class="st1" d="M178.8,96c0.2-2.1,0.2-4.3,0.2-6.5c0-22.8-8.7-44.8-24.4-61.4"/>
		<path id="Path-2" class="st2" d="M143.6,18.2C111.7-6,67.6-6.1,35.7,18"/>
		<path id="Path-3" class="st3" d="M24.5,27.9C8.8,44.5,0,66.6,0,89.5c0,2.2,0.1,4.4,0.2,6.5"/>
		<path id="Path-4" class="st4" d="M2.3,109.9c4.3,18.5,14.4,35.1,28.8,47.5"/>
	</g>
	<path id="A" class="st5" d="M350,213.6h16c7.3,0,12.6,1,15.9,3.1s4.9,5.4,4.9,9.9c0.1,2.7-0.6,5.3-2.2,7.6
		c-1.4,1.9-3.4,3.2-5.7,3.6v0.4c3.3,0.7,5.6,2.1,7,4.1c1.5,2.4,2.3,5.1,2.2,7.9c0.2,4.3-1.7,8.4-5.1,11s-8,3.9-13.8,3.9H350V213.6z
		 M360.9,234h6.3c3,0,5.1-0.5,6.4-1.4c1.4-1.1,2.1-2.8,2-4.5c0.1-1.7-0.7-3.3-2.2-4.2c-1.4-0.9-3.7-1.3-6.8-1.3h-5.7L360.9,234z
		 M360.9,242.6V256h7.1c3,0,5.2-0.6,6.6-1.7c1.5-1.3,2.3-3.3,2.1-5.3c0-4.3-3-6.4-9.1-6.4H360.9z"/>
	<g id="Equifax_er_rgb" transform="translate(328 316)">
		<path id="Shape" class="st6" d="M83.3,1.1c0.5,0,0.9,0.3,1.1,0.7c0.2,0.5,0.1,1-0.3,1.3c-0.3,0.3-0.9,0.5-1.3,0.3
			C82.3,3.2,82,2.8,82,2.3c0-0.3,0.1-0.6,0.3-0.9C82.7,1.3,83,1.1,83.3,1.1z M83.3,1.3c-0.6,0-1,0.5-1,1.1c0,0.5,0.4,0.9,1,1
			c0.3,0,0.5-0.1,0.7-0.3s0.3-0.4,0.3-0.7S84.2,1.9,84,1.7C83.9,1.4,83.6,1.3,83.3,1.3z M83.1,3h-0.2V1.7c0.1,0,0.3,0,0.4,0
			s0.3,0,0.4,0.1s0.1,0.2,0.1,0.3c0,0.2-0.1,0.3-0.3,0.3c0.1,0,0.2,0.1,0.2,0.3c0,0.1,0,0.2,0.1,0.3h-0.2c-0.1-0.1-0.1-0.2-0.1-0.3
			s0-0.1-0.1-0.2c-0.1,0-0.1-0.1-0.2-0.1H83L83.1,3L83.1,3z M83.1,2.3h0.2c0.2,0,0.3-0.1,0.3-0.2c0-0.1-0.1-0.2-0.3-0.2h-0.2V2.3z"
			/>
		<path id="Shape-2" class="st6" d="M0.5,12L3.2,0.2h10.6l-0.5,2.4H7.4L7,4.5h5.1l-0.5,2.4H6.5L5.9,9.5h6L11.4,12H0.5z"/>
		<path id="Shape-3" class="st6" d="M13.3,5.1c1.1-4.2,4-4.1,7.4-4.1c2.4,0,6,0.1,5.4,3.7c0,0-0.1,1-0.4,2.2H22l7.5,8.9h-5L21.3,12
			c-1,0.3-2.1,0.4-3.2,0.4c-2-0.1-5.6,0-5.4-3.4C12.8,7.6,13,6.3,13.3,5.1 M17.9,4.5c-0.5,1.3-0.8,2.6-1,4c-0.3,1.4,0.8,1.9,1.7,1.9
			c1,0,1.9-0.6,2.3-1.5c0.5-1.3,0.8-2.7,1-4C22.2,4.1,21.8,3.3,21,3c-0.3-0.1-0.5-0.1-0.8,0C19.2,2.9,18.3,3.5,17.9,4.5"/>
		<path id="Shape-4" class="st6" d="M28.1,1.5h4.3c0,0-1.4,6-1.7,7.5c0,0.3,0.2,0.7,0.4,0.9c0.3,0.2,0.6,0.4,0.9,0.3
			c0,0,1.7,0.3,2.1-1.1l1.7-7.6h4.4c0,0-1.7,7.6-2,8.5s-1.7,2.2-5,2.4c-0.9,0-1.8,0-2.7-0.1l-3.9-4.6C26.7,7.6,27.7,2.7,28.1,1.5"/>
		<path id="Shape-5" class="st6" d="M41.9,1.5h4.4L44,12h-4.3L41.9,1.5z"/>
		<path id="Shape-6" class="st6" d="M50.1,12h-4.4L48,1.5h9.5l-0.5,2h-5l-0.5,1.9h4.3l-0.4,2h-4.2L50.1,12z"/>
		<path id="Shape-7" class="st6" d="M56,12h-3l7.4-10.5h5.3l1.1,8.5l3.6-3.2l-3.5-5.3h5.6l1.7,2.7l2.7-2.7h4.3l-5.6,4.8l3.6,5.6
			h-5.4L72,8.8l-3,3.1h-6.5l-0.2-2.3h-4.6L56,12z M59.1,7.4h2.8l-0.3-3.5L59.1,7.4z"/>
	</g>
	<g>
		<path class="st7" d="M307.7,278.9c0,0.9-0.2,1.6-0.5,2.2s-0.8,1-1.4,1.2l1.7,1.8h-1.6l-1.3-1.6h-0.2c-1.1,0-1.9-0.3-2.5-1
			c-0.6-0.6-0.9-1.5-0.9-2.7s0.3-2.1,0.9-2.7s1.4-0.9,2.5-0.9c1.1,0,1.9,0.3,2.5,1S307.7,277.7,307.7,278.9z M302.2,278.9
			c0,0.9,0.2,1.5,0.5,2c0.4,0.5,0.9,0.7,1.6,0.7c0.7,0,1.2-0.2,1.6-0.7s0.5-1.1,0.5-2c0-0.9-0.2-1.5-0.5-2s-0.9-0.7-1.6-0.7
			c-0.7,0-1.2,0.2-1.6,0.7S302.2,278,302.2,278.9z"/>
		<path class="st7" d="M312.9,282.4l-0.2-0.7h-0.1c-0.2,0.3-0.4,0.4-0.7,0.6s-0.6,0.2-1,0.2c-0.7,0-1.1-0.2-1.5-0.5
			s-0.5-0.8-0.5-1.5V277h1.2v3.3c0,0.4,0.1,0.7,0.3,0.9c0.2,0.2,0.4,0.3,0.8,0.3c0.5,0,0.8-0.1,1.1-0.4c0.2-0.3,0.3-0.8,0.3-1.4V277
			h1.2v5.4H312.9z"/>
		<path class="st7" d="M318.8,282.4l-0.2-0.8h0c-0.3,0.3-0.5,0.6-0.8,0.7c-0.3,0.1-0.6,0.2-1,0.2c-0.5,0-0.9-0.1-1.2-0.4
			s-0.4-0.7-0.4-1.2c0-0.6,0.2-1,0.6-1.3s1-0.4,1.9-0.5l0.9,0v-0.3c0-0.3-0.1-0.6-0.2-0.8c-0.2-0.2-0.4-0.3-0.7-0.3
			c-0.3,0-0.5,0-0.8,0.1s-0.5,0.2-0.7,0.3l-0.4-0.8c0.3-0.2,0.6-0.3,1-0.3c0.3-0.1,0.7-0.1,1-0.1c0.7,0,1.2,0.1,1.6,0.4
			s0.5,0.8,0.5,1.4v3.6H318.8z M317.1,281.6c0.4,0,0.8-0.1,1-0.3c0.3-0.2,0.4-0.6,0.4-1v-0.5l-0.7,0c-0.5,0-0.9,0.1-1.2,0.3
			c-0.2,0.2-0.4,0.4-0.4,0.7c0,0.2,0.1,0.4,0.2,0.6C316.6,281.6,316.8,281.6,317.1,281.6z"/>
		<path class="st7" d="M322.4,282.4h-1.1v-7.6h1.1V282.4z"/>
		<path class="st7" d="M324,275.6c0-0.2,0.1-0.4,0.2-0.5s0.3-0.2,0.5-0.2c0.2,0,0.4,0.1,0.5,0.2s0.2,0.3,0.2,0.5
			c0,0.2-0.1,0.3-0.2,0.5c-0.1,0.1-0.3,0.2-0.5,0.2c-0.2,0-0.4-0.1-0.5-0.2C324,275.9,324,275.8,324,275.6z M325.2,282.4H324V277
			h1.1V282.4z"/>
		<path class="st7" d="M328.8,281.6c0.3,0,0.6,0,0.8-0.1v0.9c-0.1,0.1-0.3,0.1-0.5,0.1c-0.2,0-0.4,0.1-0.6,0.1
			c-1.1,0-1.6-0.6-1.6-1.7v-2.9h-0.7v-0.5l0.8-0.4l0.4-1.1h0.7v1.2h1.5v0.9h-1.5v2.9c0,0.3,0.1,0.5,0.2,0.6
			C328.4,281.5,328.6,281.6,328.8,281.6z"/>
		<path class="st7" d="M333.1,282.5c-0.8,0-1.5-0.2-2-0.7c-0.5-0.5-0.7-1.2-0.7-2c0-0.9,0.2-1.6,0.7-2.1s1-0.8,1.8-0.8
			c0.7,0,1.3,0.2,1.7,0.6s0.6,1,0.6,1.8v0.6h-3.6c0,0.5,0.2,0.9,0.4,1.2c0.3,0.3,0.6,0.4,1.1,0.4c0.3,0,0.6,0,0.9-0.1
			c0.3-0.1,0.6-0.2,0.9-0.3v0.9c-0.3,0.1-0.6,0.2-0.8,0.3S333.5,282.5,333.1,282.5z M332.9,277.8c-0.4,0-0.7,0.1-0.9,0.3
			s-0.4,0.6-0.4,1h2.5c0-0.4-0.1-0.8-0.3-1C333.6,277.9,333.3,277.8,332.9,277.8z M332.2,276.4v-0.1c0.2-0.2,0.4-0.5,0.6-0.8
			s0.4-0.5,0.5-0.7h1.3v0.1c-0.2,0.2-0.4,0.5-0.8,0.8c-0.3,0.3-0.6,0.6-0.9,0.7H332.2z"/>
		<path class="st7" d="M341.9,282.5c-0.7,0-1.2-0.2-1.6-0.7h-0.1c0,0.5,0.1,0.7,0.1,0.8v2.2h-1.1V277h0.9c0,0.1,0.1,0.3,0.2,0.7h0.1
			c0.4-0.5,0.9-0.8,1.6-0.8c0.7,0,1.2,0.2,1.6,0.7s0.6,1.2,0.6,2.1s-0.2,1.6-0.6,2.1S342.5,282.5,341.9,282.5z M341.6,277.9
			c-0.5,0-0.8,0.1-1,0.4s-0.3,0.7-0.3,1.3v0.2c0,0.7,0.1,1.1,0.3,1.4c0.2,0.3,0.5,0.4,1,0.4c0.4,0,0.7-0.2,0.9-0.5s0.3-0.8,0.3-1.4
			c0-0.6-0.1-1.1-0.3-1.4C342.3,278,342,277.9,341.6,277.9z"/>
		<path class="st7" d="M347.7,282.5c-0.8,0-1.5-0.2-2-0.7c-0.5-0.5-0.7-1.2-0.7-2c0-0.9,0.2-1.6,0.7-2.1s1-0.8,1.8-0.8
			c0.7,0,1.3,0.2,1.7,0.6s0.6,1,0.6,1.8v0.6h-3.6c0,0.5,0.2,0.9,0.4,1.2c0.3,0.3,0.6,0.4,1.1,0.4c0.3,0,0.6,0,0.9-0.1
			c0.3-0.1,0.6-0.2,0.9-0.3v0.9c-0.3,0.1-0.6,0.2-0.8,0.3S348.1,282.5,347.7,282.5z M347.5,277.8c-0.4,0-0.7,0.1-0.9,0.3
			s-0.4,0.6-0.4,1h2.5c0-0.4-0.1-0.8-0.3-1C348.2,277.9,347.9,277.8,347.5,277.8z"/>
		<path class="st7" d="M353.1,281.6c0.3,0,0.6,0,0.8-0.1v0.9c-0.1,0.1-0.3,0.1-0.5,0.1c-0.2,0-0.4,0.1-0.6,0.1
			c-1.1,0-1.6-0.6-1.6-1.7v-2.9h-0.7v-0.5l0.8-0.4l0.4-1.1h0.7v1.2h1.5v0.9h-1.5v2.9c0,0.3,0.1,0.5,0.2,0.6
			C352.7,281.5,352.9,281.6,353.1,281.6z"/>
		<path class="st7" d="M355,275.6c0-0.2,0.1-0.4,0.2-0.5s0.3-0.2,0.5-0.2c0.2,0,0.4,0.1,0.5,0.2s0.2,0.3,0.2,0.5
			c0,0.2-0.1,0.3-0.2,0.5c-0.1,0.1-0.3,0.2-0.5,0.2c-0.2,0-0.4-0.1-0.5-0.2C355,275.9,355,275.8,355,275.6z M356.2,282.4H355V277
			h1.1V282.4z"/>
		<path class="st7" d="M359.8,281.6c0.3,0,0.6,0,0.8-0.1v0.9c-0.1,0.1-0.3,0.1-0.5,0.1c-0.2,0-0.4,0.1-0.6,0.1
			c-1.1,0-1.6-0.6-1.6-1.7v-2.9h-0.7v-0.5l0.8-0.4l0.4-1.1h0.7v1.2h1.5v0.9h-1.5v2.9c0,0.3,0.1,0.5,0.2,0.6
			C359.4,281.5,359.6,281.6,359.8,281.6z"/>
		<path class="st7" d="M364.1,282.5c-0.8,0-1.5-0.2-2-0.7c-0.5-0.5-0.7-1.2-0.7-2c0-0.9,0.2-1.6,0.7-2.1s1-0.8,1.8-0.8
			c0.7,0,1.3,0.2,1.7,0.6s0.6,1,0.6,1.8v0.6h-3.6c0,0.5,0.2,0.9,0.4,1.2c0.3,0.3,0.6,0.4,1.1,0.4c0.3,0,0.6,0,0.9-0.1
			c0.3-0.1,0.6-0.2,0.9-0.3v0.9c-0.3,0.1-0.6,0.2-0.8,0.3S364.5,282.5,364.1,282.5z M363.9,277.8c-0.4,0-0.7,0.1-0.9,0.3
			s-0.4,0.6-0.4,1h2.5c0-0.4-0.1-0.8-0.3-1C364.6,277.9,364.3,277.8,363.9,277.8z"/>
		<path class="st7" d="M371.2,280.9c0,0.5-0.2,0.9-0.6,1.2c-0.4,0.3-0.9,0.4-1.6,0.4c-0.7,0-1.3-0.1-1.7-0.3v-1
			c0.6,0.3,1.2,0.4,1.8,0.4c0.7,0,1.1-0.2,1.1-0.6c0-0.1,0-0.3-0.1-0.3s-0.2-0.2-0.4-0.3s-0.4-0.2-0.7-0.3c-0.6-0.2-1-0.5-1.3-0.7
			c-0.2-0.2-0.3-0.6-0.3-0.9c0-0.5,0.2-0.8,0.6-1.1c0.4-0.3,0.9-0.4,1.5-0.4c0.6,0,1.2,0.1,1.8,0.4l-0.4,0.9
			c-0.6-0.2-1.1-0.4-1.5-0.4c-0.6,0-0.9,0.2-0.9,0.5c0,0.2,0.1,0.3,0.2,0.4c0.2,0.1,0.5,0.3,1,0.5c0.4,0.2,0.8,0.3,1,0.5
			s0.4,0.3,0.4,0.5C371.1,280.4,371.2,280.6,371.2,280.9z"/>
		<path class="st7" d="M377.3,282.5c-0.8,0-1.5-0.2-2-0.7c-0.5-0.5-0.7-1.2-0.7-2c0-0.9,0.2-1.6,0.7-2.1s1-0.8,1.8-0.8
			c0.7,0,1.3,0.2,1.7,0.6s0.6,1,0.6,1.8v0.6h-3.6c0,0.5,0.2,0.9,0.4,1.2c0.3,0.3,0.6,0.4,1.1,0.4c0.3,0,0.6,0,0.9-0.1
			c0.3-0.1,0.6-0.2,0.9-0.3v0.9c-0.3,0.1-0.6,0.2-0.8,0.3S377.7,282.5,377.3,282.5z M377.1,277.8c-0.4,0-0.7,0.1-0.9,0.3
			c-0.2,0.2-0.4,0.6-0.4,1h2.5c0-0.4-0.1-0.8-0.3-1C377.8,277.9,377.5,277.8,377.1,277.8z"/>
		<path class="st7" d="M385.5,282.4h-1.2v-3.3c0-0.4-0.1-0.7-0.3-0.9c-0.2-0.2-0.4-0.3-0.8-0.3c-0.5,0-0.8,0.1-1.1,0.4
			s-0.3,0.8-0.3,1.4v2.7h-1.1V277h0.9l0.2,0.7h0.1c0.2-0.3,0.4-0.5,0.7-0.6s0.6-0.2,1-0.2c1.3,0,1.9,0.7,1.9,2V282.4z"/>
		<path class="st7" d="M389.1,281.6c0.3,0,0.6,0,0.8-0.1v0.9c-0.1,0.1-0.3,0.1-0.5,0.1c-0.2,0-0.4,0.1-0.6,0.1
			c-1.1,0-1.6-0.6-1.6-1.7v-2.9h-0.7v-0.5l0.8-0.4l0.4-1.1h0.7v1.2h1.5v0.9h-1.5v2.9c0,0.3,0.1,0.5,0.2,0.6
			C388.7,281.5,388.9,281.6,389.1,281.6z"/>
		<path class="st7" d="M393.4,282.5c-0.8,0-1.5-0.2-2-0.7c-0.5-0.5-0.7-1.2-0.7-2c0-0.9,0.2-1.6,0.7-2.1s1-0.8,1.8-0.8
			c0.7,0,1.3,0.2,1.7,0.6s0.6,1,0.6,1.8v0.6h-3.6c0,0.5,0.2,0.9,0.4,1.2c0.3,0.3,0.6,0.4,1.1,0.4c0.3,0,0.6,0,0.9-0.1
			c0.3-0.1,0.6-0.2,0.9-0.3v0.9c-0.3,0.1-0.6,0.2-0.8,0.3S393.8,282.5,393.4,282.5z M393.2,277.8c-0.4,0-0.7,0.1-0.9,0.3
			c-0.2,0.2-0.4,0.6-0.4,1h2.5c0-0.4-0.1-0.8-0.3-1C393.8,277.9,393.5,277.8,393.2,277.8z"/>
		<path class="st7" d="M399.5,276.9c0.2,0,0.4,0,0.6,0L400,278c-0.2,0-0.3-0.1-0.5-0.1c-0.5,0-0.8,0.1-1.1,0.4
			c-0.3,0.3-0.4,0.7-0.4,1.2v2.8h-1.1V277h0.9l0.2,1h0.1c0.2-0.3,0.4-0.6,0.7-0.8C398.9,277,399.2,276.9,399.5,276.9z"/>
		<path class="st7" d="M403.8,282.5c-0.7,0-1.2-0.2-1.6-0.7h-0.1c0,0.5,0.1,0.7,0.1,0.8v2.2h-1.1V277h0.9c0,0.1,0.1,0.3,0.2,0.7h0.1
			c0.4-0.5,0.9-0.8,1.6-0.8c0.7,0,1.2,0.2,1.6,0.7c0.4,0.5,0.6,1.2,0.6,2.1s-0.2,1.6-0.6,2.1C405,282.3,404.5,282.5,403.8,282.5z
			 M403.6,277.9c-0.5,0-0.8,0.1-1,0.4c-0.2,0.3-0.3,0.7-0.3,1.3v0.2c0,0.7,0.1,1.1,0.3,1.4c0.2,0.3,0.5,0.4,1,0.4
			c0.4,0,0.7-0.2,0.9-0.5s0.3-0.8,0.3-1.4c0-0.6-0.1-1.1-0.3-1.4C404.3,278,404,277.9,403.6,277.9z"/>
		<path class="st7" d="M410.1,276.9c0.2,0,0.4,0,0.6,0l-0.1,1.1c-0.2,0-0.3-0.1-0.5-0.1c-0.5,0-0.8,0.1-1.1,0.4
			c-0.3,0.3-0.4,0.7-0.4,1.2v2.8h-1.1V277h0.9l0.2,1h0.1c0.2-0.3,0.4-0.6,0.7-0.8C409.4,277,409.7,276.9,410.1,276.9z"/>
		<path class="st7" d="M411.6,275.6c0-0.2,0.1-0.4,0.2-0.5c0.1-0.1,0.3-0.2,0.5-0.2c0.2,0,0.4,0.1,0.5,0.2c0.1,0.1,0.2,0.3,0.2,0.5
			c0,0.2-0.1,0.3-0.2,0.5c-0.1,0.1-0.3,0.2-0.5,0.2c-0.2,0-0.4-0.1-0.5-0.2C411.6,275.9,411.6,275.8,411.6,275.6z M412.8,282.4h-1.1
			V277h1.1V282.4z"/>
		<path class="st7" d="M418.1,280.9c0,0.5-0.2,0.9-0.6,1.2c-0.4,0.3-0.9,0.4-1.7,0.4c-0.7,0-1.3-0.1-1.7-0.3v-1
			c0.6,0.3,1.2,0.4,1.8,0.4c0.7,0,1.1-0.2,1.1-0.6c0-0.1,0-0.3-0.1-0.3s-0.2-0.2-0.4-0.3s-0.4-0.2-0.7-0.3c-0.6-0.2-1-0.5-1.3-0.7
			c-0.2-0.2-0.3-0.6-0.3-0.9c0-0.5,0.2-0.8,0.6-1.1c0.4-0.3,0.9-0.4,1.5-0.4c0.6,0,1.2,0.1,1.8,0.4l-0.4,0.9
			c-0.6-0.2-1.1-0.4-1.5-0.4c-0.6,0-0.9,0.2-0.9,0.5c0,0.2,0.1,0.3,0.2,0.4c0.2,0.1,0.5,0.3,1,0.5c0.4,0.2,0.8,0.3,1,0.5
			s0.4,0.3,0.4,0.5C418,280.4,418.1,280.6,418.1,280.9z"/>
		<path class="st7" d="M421.7,282.5c-0.8,0-1.5-0.2-2-0.7c-0.5-0.5-0.7-1.2-0.7-2c0-0.9,0.2-1.6,0.7-2.1s1-0.8,1.8-0.8
			c0.7,0,1.3,0.2,1.7,0.6s0.6,1,0.6,1.8v0.6h-3.6c0,0.5,0.2,0.9,0.4,1.2c0.3,0.3,0.6,0.4,1.1,0.4c0.3,0,0.6,0,0.9-0.1
			c0.3-0.1,0.6-0.2,0.9-0.3v0.9c-0.3,0.1-0.6,0.2-0.8,0.3S422,282.5,421.7,282.5z M421.4,277.8c-0.4,0-0.7,0.1-0.9,0.3
			c-0.2,0.2-0.4,0.6-0.4,1h2.5c0-0.4-0.1-0.8-0.3-1C422.1,277.9,421.8,277.8,421.4,277.8z"/>
		<path class="st7" d="M428.7,280.9c0,0.5-0.2,0.9-0.6,1.2c-0.4,0.3-0.9,0.4-1.7,0.4c-0.7,0-1.3-0.1-1.7-0.3v-1
			c0.6,0.3,1.2,0.4,1.8,0.4c0.7,0,1.1-0.2,1.1-0.6c0-0.1,0-0.3-0.1-0.3s-0.2-0.2-0.4-0.3s-0.4-0.2-0.7-0.3c-0.6-0.2-1-0.5-1.3-0.7
			c-0.2-0.2-0.3-0.6-0.3-0.9c0-0.5,0.2-0.8,0.6-1.1c0.4-0.3,0.9-0.4,1.5-0.4c0.6,0,1.2,0.1,1.8,0.4l-0.4,0.9
			c-0.6-0.2-1.1-0.4-1.5-0.4c-0.6,0-0.9,0.2-0.9,0.5c0,0.2,0.1,0.3,0.2,0.4c0.2,0.1,0.5,0.3,1,0.5c0.4,0.2,0.8,0.3,1,0.5
			s0.4,0.3,0.4,0.5C428.6,280.4,428.7,280.6,428.7,280.9z"/>
		<path class="st7" d="M431.5,279.1l-1.2-3.5h0c0,0.5,0,1,0,1.5v2h-0.6v-4.2h1l1.2,3.3h0l1.2-3.3h1v4.2h-0.7V277c0-0.2,0-0.5,0-0.8
			c0-0.3,0-0.5,0-0.6h0l-1.2,3.5H431.5z"/>
		<path class="st7" d="M436.8,275.5c-0.4,0-0.7,0.1-0.9,0.4c-0.2,0.3-0.3,0.7-0.3,1.1c0,0.5,0.1,0.9,0.3,1.2
			c0.2,0.3,0.5,0.4,0.9,0.4c0.2,0,0.3,0,0.5-0.1s0.3-0.1,0.5-0.1v0.6c-0.3,0.1-0.7,0.2-1.1,0.2c-0.6,0-1.1-0.2-1.4-0.6
			s-0.5-0.9-0.5-1.6c0-0.4,0.1-0.8,0.2-1.1s0.4-0.6,0.7-0.7c0.3-0.2,0.7-0.3,1.1-0.3c0.4,0,0.8,0.1,1.2,0.3l-0.2,0.6
			c-0.1-0.1-0.3-0.1-0.4-0.2C437.1,275.5,437,275.5,436.8,275.5z"/>
	</g>
</g>
</svg>
