<?xml version="1.0" encoding="utf-8"?>
<!-- Generator: Adobe Illustrator 23.0.2, SVG Export Plug-In . SVG Version: 6.00 Build 0)  -->
<svg version="1.1" id="Layer_1" xmlns="http://www.w3.org/2000/svg" x="0px" y="0px"
     viewBox="0 0 187 171.8" style="enable-background:new 0 0 187 171.8;" xml:space="preserve">
<style type="text/css">
	.st0{fill:none;stroke:#3BA445;stroke-width:8;stroke-linecap:round;}
	.st1{fill:none;stroke:#65C66F;stroke-width:8;stroke-linecap:round;}
	.st2{fill:none;stroke:#7BD284;stroke-width:8;stroke-linecap:round;}
	.st3{fill:none;stroke:#94DE9C;stroke-width:8;stroke-linecap:round;}
	.st4{fill:none;stroke:#B9F1BF;stroke-width:8;stroke-linecap:round;}
	.st5{fill:#001226;}
	.st6{fill:#9E1B32;}
	.st7{fill:#778F9B;}
</style>
<g id="BM-certification-score-A" transform="translate(-42 -160)">
	<g id="Score-A" transform="translate(46 164)">
		<path id="Oval-14" class="st0" d="M148.1,157.2c14.3-12.4,24.3-28.9,28.6-47.3"/>
		<path id="Path" class="st1" d="M178.8,96c0.2-2.1,0.2-4.3,0.2-6.5c0-22.8-8.7-44.8-24.4-61.4"/>
		<path id="Path-2" class="st2" d="M143.6,18.2C111.7-6,67.6-6.1,35.7,18"/>
		<path id="Path-3" class="st3" d="M24.5,27.9C8.8,44.5,0,66.6,0,89.5c0,2.2,0.1,4.4,0.2,6.5"/>
		<path id="Path-4" class="st4" d="M2.3,109.9c4.3,18.5,14.4,35.1,28.8,47.5"/>
	</g>
	<path id="A" class="st5" d="M148.9,265l-3.7-12.2h-18.7l-3.7,12.2H111l18.1-51.6h13.3l18.2,51.6H148.9z M142.6,243.6
		c-3.4-11.1-5.4-17.4-5.8-18.8c-0.4-1.5-0.7-2.6-0.9-3.4c-0.8,3-3,10.4-6.6,22.3h13.3V243.6z"/>
	<g id="Equifax_er_rgb" transform="translate(94 316)">
		<path id="Shape" class="st6" d="M83.3,1.1c0.5,0,0.9,0.3,1.1,0.7c0.2,0.5,0.1,1-0.3,1.3c-0.3,0.3-0.9,0.5-1.3,0.3
			C82.3,3.2,82,2.8,82,2.3c0-0.3,0.1-0.6,0.3-0.9C82.7,1.3,83,1.1,83.3,1.1z M83.3,1.3c-0.6,0-1,0.5-1,1.1c0,0.5,0.4,0.9,1,1
			c0.3,0,0.5-0.1,0.7-0.3s0.3-0.4,0.3-0.7S84.2,1.9,84,1.7C83.9,1.4,83.6,1.3,83.3,1.3z M83.1,3h-0.2V1.7c0.1,0,0.3,0,0.4,0
			s0.3,0,0.4,0.1s0.1,0.2,0.1,0.3c0,0.2-0.1,0.3-0.3,0.3c0.1,0,0.2,0.1,0.2,0.3c0,0.1,0,0.2,0.1,0.3h-0.2c-0.1-0.1-0.1-0.2-0.1-0.3
			s0-0.1-0.1-0.2c-0.1,0-0.1-0.1-0.2-0.1H83L83.1,3L83.1,3z M83.1,2.3h0.2c0.2,0,0.3-0.1,0.3-0.2c0-0.1-0.1-0.2-0.3-0.2h-0.2V2.3z"
			/>
		<path id="Shape-2" class="st6" d="M0.5,12L3.2,0.2h10.6l-0.5,2.4H7.4L7,4.5h5.1l-0.5,2.4H6.5L5.9,9.5h6L11.4,12H0.5z"/>
		<path id="Shape-3" class="st6" d="M13.3,5.1c1.1-4.2,4-4.1,7.4-4.1c2.4,0,6,0.1,5.4,3.7c0,0-0.1,1-0.4,2.2H22l7.5,8.9h-5L21.3,12
			c-1,0.3-2.1,0.4-3.2,0.4c-2-0.1-5.6,0-5.4-3.4C12.8,7.6,13,6.3,13.3,5.1 M17.9,4.5c-0.5,1.3-0.8,2.6-1,4c-0.3,1.4,0.8,1.9,1.7,1.9
			c1,0,1.9-0.6,2.3-1.5c0.5-1.3,0.8-2.7,1-4C22.2,4.1,21.8,3.3,21,3c-0.3-0.1-0.5-0.1-0.8,0C19.2,2.9,18.3,3.5,17.9,4.5"/>
		<path id="Shape-4" class="st6" d="M28.1,1.5h4.3c0,0-1.4,6-1.7,7.5c0,0.3,0.2,0.7,0.4,0.9c0.3,0.2,0.6,0.4,0.9,0.3
			c0,0,1.7,0.3,2.1-1.1l1.7-7.6h4.4c0,0-1.7,7.6-2,8.5s-1.7,2.2-5,2.4c-0.9,0-1.8,0-2.7-0.1l-3.9-4.6C26.7,7.6,27.7,2.7,28.1,1.5"/>
		<path id="Shape-5" class="st6" d="M41.9,1.5h4.4L44,12h-4.3L41.9,1.5z"/>
		<path id="Shape-6" class="st6" d="M50.1,12h-4.4L48,1.5h9.5l-0.5,2h-5l-0.5,1.9h4.3l-0.4,2h-4.2L50.1,12z"/>
		<path id="Shape-7" class="st6" d="M56,12h-3l7.4-10.5h5.3l1.1,8.5l3.6-3.2l-3.5-5.3h5.6l1.7,2.7l2.7-2.7h4.3l-5.6,4.8l3.6,5.6
			h-5.4L72,8.8l-3,3.1h-6.5l-0.2-2.3h-4.6L56,12z M59.1,7.4h2.8l-0.3-3.5L59.1,7.4z"/>
	</g>
	<g>
		<path class="st7" d="M73.7,278.7c0,0.9-0.2,1.6-0.5,2.2s-0.8,1-1.4,1.2l1.7,1.8h-1.6l-1.3-1.6h-0.2c-1.1,0-1.9-0.3-2.5-1
			c-0.6-0.6-0.9-1.5-0.9-2.7s0.3-2.1,0.9-2.7s1.4-0.9,2.5-0.9c1.1,0,1.9,0.3,2.5,1S73.7,277.5,73.7,278.7z M68.2,278.7
			c0,0.9,0.2,1.5,0.5,2c0.4,0.5,0.9,0.7,1.6,0.7c0.7,0,1.2-0.2,1.6-0.7s0.5-1.1,0.5-2c0-0.9-0.2-1.5-0.5-2s-0.9-0.7-1.6-0.7
			c-0.7,0-1.2,0.2-1.6,0.7S68.2,277.8,68.2,278.7z"/>
		<path class="st7" d="M78.9,282.3l-0.2-0.7h-0.1c-0.2,0.3-0.4,0.4-0.7,0.6s-0.6,0.2-1,0.2c-0.7,0-1.1-0.2-1.5-0.5s-0.5-0.8-0.5-1.5
			v-3.5h1.2v3.3c0,0.4,0.1,0.7,0.3,0.9c0.2,0.2,0.4,0.3,0.8,0.3c0.5,0,0.8-0.1,1.1-0.4c0.2-0.3,0.3-0.8,0.3-1.4v-2.7h1.2v5.4H78.9z"
			/>
		<path class="st7" d="M84.8,282.3l-0.2-0.8h0c-0.3,0.3-0.5,0.6-0.8,0.7c-0.3,0.1-0.6,0.2-1,0.2c-0.5,0-0.9-0.1-1.2-0.4
			s-0.4-0.7-0.4-1.2c0-0.6,0.2-1,0.6-1.3s1-0.4,1.9-0.5l0.9,0v-0.3c0-0.3-0.1-0.6-0.2-0.8c-0.2-0.2-0.4-0.3-0.7-0.3
			c-0.3,0-0.5,0-0.8,0.1s-0.5,0.2-0.7,0.3l-0.4-0.8c0.3-0.2,0.6-0.3,1-0.3c0.3-0.1,0.7-0.1,1-0.1c0.7,0,1.2,0.1,1.6,0.4
			s0.5,0.8,0.5,1.4v3.6H84.8z M83.1,281.5c0.4,0,0.8-0.1,1-0.3c0.3-0.2,0.4-0.6,0.4-1v-0.5l-0.7,0c-0.5,0-0.9,0.1-1.2,0.3
			c-0.2,0.2-0.4,0.4-0.4,0.7c0,0.2,0.1,0.4,0.2,0.6C82.6,281.4,82.8,281.5,83.1,281.5z"/>
		<path class="st7" d="M88.4,282.3h-1.1v-7.6h1.1V282.3z"/>
		<path class="st7" d="M90,275.4c0-0.2,0.1-0.4,0.2-0.5s0.3-0.2,0.5-0.2c0.2,0,0.4,0.1,0.5,0.2s0.2,0.3,0.2,0.5
			c0,0.2-0.1,0.3-0.2,0.5c-0.1,0.1-0.3,0.2-0.5,0.2c-0.2,0-0.4-0.1-0.5-0.2C90,275.8,90,275.6,90,275.4z M91.2,282.3H90v-5.4h1.1
			V282.3z"/>
		<path class="st7" d="M94.8,281.4c0.3,0,0.6,0,0.8-0.1v0.9c-0.1,0.1-0.3,0.1-0.5,0.1c-0.2,0-0.4,0.1-0.6,0.1
			c-1.1,0-1.6-0.6-1.6-1.7v-2.9h-0.7v-0.5l0.8-0.4l0.4-1.1h0.7v1.2h1.5v0.9h-1.5v2.9c0,0.3,0.1,0.5,0.2,0.6
			C94.4,281.4,94.6,281.4,94.8,281.4z"/>
		<path class="st7" d="M99.1,282.4c-0.8,0-1.5-0.2-2-0.7c-0.5-0.5-0.7-1.2-0.7-2c0-0.9,0.2-1.6,0.7-2.1s1-0.8,1.8-0.8
			c0.7,0,1.3,0.2,1.7,0.6s0.6,1,0.6,1.8v0.6h-3.6c0,0.5,0.2,0.9,0.4,1.2c0.3,0.3,0.6,0.4,1.1,0.4c0.3,0,0.6,0,0.9-0.1
			c0.3-0.1,0.6-0.2,0.9-0.3v0.9c-0.3,0.1-0.6,0.2-0.8,0.3S99.5,282.4,99.1,282.4z M98.9,277.7c-0.4,0-0.7,0.1-0.9,0.3
			s-0.4,0.6-0.4,1h2.5c0-0.4-0.1-0.8-0.3-1C99.6,277.8,99.3,277.7,98.9,277.7z M98.2,276.2v-0.1c0.2-0.2,0.4-0.5,0.6-0.8
			s0.4-0.5,0.5-0.7h1.3v0.1c-0.2,0.2-0.4,0.5-0.8,0.8c-0.3,0.3-0.6,0.6-0.9,0.7H98.2z"/>
		<path class="st7" d="M107.9,282.4c-0.7,0-1.2-0.2-1.6-0.7h-0.1c0,0.5,0.1,0.7,0.1,0.8v2.2h-1.1v-7.8h0.9c0,0.1,0.1,0.3,0.2,0.7
			h0.1c0.4-0.5,0.9-0.8,1.6-0.8c0.7,0,1.2,0.2,1.6,0.7s0.6,1.2,0.6,2.1s-0.2,1.6-0.6,2.1S108.5,282.4,107.9,282.4z M107.6,277.7
			c-0.5,0-0.8,0.1-1,0.4s-0.3,0.7-0.3,1.3v0.2c0,0.7,0.1,1.1,0.3,1.4c0.2,0.3,0.5,0.4,1,0.4c0.4,0,0.7-0.2,0.9-0.5s0.3-0.8,0.3-1.4
			c0-0.6-0.1-1.1-0.3-1.4C108.3,277.9,108,277.7,107.6,277.7z"/>
		<path class="st7" d="M113.7,282.4c-0.8,0-1.5-0.2-2-0.7c-0.5-0.5-0.7-1.2-0.7-2c0-0.9,0.2-1.6,0.7-2.1s1-0.8,1.8-0.8
			c0.7,0,1.3,0.2,1.7,0.6s0.6,1,0.6,1.8v0.6h-3.6c0,0.5,0.2,0.9,0.4,1.2c0.3,0.3,0.6,0.4,1.1,0.4c0.3,0,0.6,0,0.9-0.1
			c0.3-0.1,0.6-0.2,0.9-0.3v0.9c-0.3,0.1-0.6,0.2-0.8,0.3S114.1,282.4,113.7,282.4z M113.5,277.7c-0.4,0-0.7,0.1-0.9,0.3
			s-0.4,0.6-0.4,1h2.5c0-0.4-0.1-0.8-0.3-1C114.2,277.8,113.9,277.7,113.5,277.7z"/>
		<path class="st7" d="M119.1,281.4c0.3,0,0.6,0,0.8-0.1v0.9c-0.1,0.1-0.3,0.1-0.5,0.1c-0.2,0-0.4,0.1-0.6,0.1
			c-1.1,0-1.6-0.6-1.6-1.7v-2.9h-0.7v-0.5l0.8-0.4l0.4-1.1h0.7v1.2h1.5v0.9h-1.5v2.9c0,0.3,0.1,0.5,0.2,0.6
			C118.7,281.4,118.9,281.4,119.1,281.4z"/>
		<path class="st7" d="M121,275.4c0-0.2,0.1-0.4,0.2-0.5s0.3-0.2,0.5-0.2c0.2,0,0.4,0.1,0.5,0.2s0.2,0.3,0.2,0.5
			c0,0.2-0.1,0.3-0.2,0.5c-0.1,0.1-0.3,0.2-0.5,0.2c-0.2,0-0.4-0.1-0.5-0.2C121,275.8,121,275.6,121,275.4z M122.2,282.3H121v-5.4
			h1.1V282.3z"/>
		<path class="st7" d="M125.8,281.4c0.3,0,0.6,0,0.8-0.1v0.9c-0.1,0.1-0.3,0.1-0.5,0.1c-0.2,0-0.4,0.1-0.6,0.1
			c-1.1,0-1.6-0.6-1.6-1.7v-2.9h-0.7v-0.5l0.8-0.4l0.4-1.1h0.7v1.2h1.5v0.9h-1.5v2.9c0,0.3,0.1,0.5,0.2,0.6
			C125.4,281.4,125.6,281.4,125.8,281.4z"/>
		<path class="st7" d="M130.1,282.4c-0.8,0-1.5-0.2-2-0.7c-0.5-0.5-0.7-1.2-0.7-2c0-0.9,0.2-1.6,0.7-2.1s1-0.8,1.8-0.8
			c0.7,0,1.3,0.2,1.7,0.6s0.6,1,0.6,1.8v0.6h-3.6c0,0.5,0.2,0.9,0.4,1.2c0.3,0.3,0.6,0.4,1.1,0.4c0.3,0,0.6,0,0.9-0.1
			c0.3-0.1,0.6-0.2,0.9-0.3v0.9c-0.3,0.1-0.6,0.2-0.8,0.3S130.5,282.4,130.1,282.4z M129.9,277.7c-0.4,0-0.7,0.1-0.9,0.3
			s-0.4,0.6-0.4,1h2.5c0-0.4-0.1-0.8-0.3-1C130.6,277.8,130.3,277.7,129.9,277.7z"/>
		<path class="st7" d="M137.2,280.7c0,0.5-0.2,0.9-0.6,1.2c-0.4,0.3-0.9,0.4-1.6,0.4c-0.7,0-1.3-0.1-1.7-0.3v-1
			c0.6,0.3,1.2,0.4,1.8,0.4c0.7,0,1.1-0.2,1.1-0.6c0-0.1,0-0.3-0.1-0.3s-0.2-0.2-0.4-0.3s-0.4-0.2-0.7-0.3c-0.6-0.2-1-0.5-1.3-0.7
			c-0.2-0.2-0.3-0.6-0.3-0.9c0-0.5,0.2-0.8,0.6-1.1c0.4-0.3,0.9-0.4,1.5-0.4c0.6,0,1.2,0.1,1.8,0.4l-0.4,0.9
			c-0.6-0.2-1.1-0.4-1.5-0.4c-0.6,0-0.9,0.2-0.9,0.5c0,0.2,0.1,0.3,0.2,0.4c0.2,0.1,0.5,0.3,1,0.5c0.4,0.2,0.8,0.3,1,0.5
			s0.4,0.3,0.4,0.5C137.1,280.3,137.2,280.5,137.2,280.7z"/>
		<path class="st7" d="M143.3,282.4c-0.8,0-1.5-0.2-2-0.7c-0.5-0.5-0.7-1.2-0.7-2c0-0.9,0.2-1.6,0.7-2.1s1-0.8,1.8-0.8
			c0.7,0,1.3,0.2,1.7,0.6s0.6,1,0.6,1.8v0.6h-3.6c0,0.5,0.2,0.9,0.4,1.2c0.3,0.3,0.6,0.4,1.1,0.4c0.3,0,0.6,0,0.9-0.1
			c0.3-0.1,0.6-0.2,0.9-0.3v0.9c-0.3,0.1-0.6,0.2-0.8,0.3S143.7,282.4,143.3,282.4z M143.1,277.7c-0.4,0-0.7,0.1-0.9,0.3
			c-0.2,0.2-0.4,0.6-0.4,1h2.5c0-0.4-0.1-0.8-0.3-1C143.8,277.8,143.5,277.7,143.1,277.7z"/>
		<path class="st7" d="M151.5,282.3h-1.2V279c0-0.4-0.1-0.7-0.3-0.9c-0.2-0.2-0.4-0.3-0.8-0.3c-0.5,0-0.8,0.1-1.1,0.4
			s-0.3,0.8-0.3,1.4v2.7h-1.1v-5.4h0.9l0.2,0.7h0.1c0.2-0.3,0.4-0.5,0.7-0.6s0.6-0.2,1-0.2c1.3,0,1.9,0.7,1.9,2V282.3z"/>
		<path class="st7" d="M155.1,281.4c0.3,0,0.6,0,0.8-0.1v0.9c-0.1,0.1-0.3,0.1-0.5,0.1c-0.2,0-0.4,0.1-0.6,0.1
			c-1.1,0-1.6-0.6-1.6-1.7v-2.9h-0.7v-0.5l0.8-0.4l0.4-1.1h0.7v1.2h1.5v0.9h-1.5v2.9c0,0.3,0.1,0.5,0.2,0.6
			C154.7,281.4,154.9,281.4,155.1,281.4z"/>
		<path class="st7" d="M159.4,282.4c-0.8,0-1.5-0.2-2-0.7c-0.5-0.5-0.7-1.2-0.7-2c0-0.9,0.2-1.6,0.7-2.1s1-0.8,1.8-0.8
			c0.7,0,1.3,0.2,1.7,0.6s0.6,1,0.6,1.8v0.6h-3.6c0,0.5,0.2,0.9,0.4,1.2c0.3,0.3,0.6,0.4,1.1,0.4c0.3,0,0.6,0,0.9-0.1
			c0.3-0.1,0.6-0.2,0.9-0.3v0.9c-0.3,0.1-0.6,0.2-0.8,0.3S159.8,282.4,159.4,282.4z M159.2,277.7c-0.4,0-0.7,0.1-0.9,0.3
			c-0.2,0.2-0.4,0.6-0.4,1h2.5c0-0.4-0.1-0.8-0.3-1C159.8,277.8,159.5,277.7,159.2,277.7z"/>
		<path class="st7" d="M165.5,276.8c0.2,0,0.4,0,0.6,0l-0.1,1.1c-0.2,0-0.3-0.1-0.5-0.1c-0.5,0-0.8,0.1-1.1,0.4
			c-0.3,0.3-0.4,0.7-0.4,1.2v2.8h-1.1v-5.4h0.9l0.2,1h0.1c0.2-0.3,0.4-0.6,0.7-0.8C164.9,276.9,165.2,276.8,165.5,276.8z"/>
		<path class="st7" d="M169.8,282.4c-0.7,0-1.2-0.2-1.6-0.7h-0.1c0,0.5,0.1,0.7,0.1,0.8v2.2h-1.1v-7.8h0.9c0,0.1,0.1,0.3,0.2,0.7
			h0.1c0.4-0.5,0.9-0.8,1.6-0.8c0.7,0,1.2,0.2,1.6,0.7c0.4,0.5,0.6,1.2,0.6,2.1s-0.2,1.6-0.6,2.1C171,282.1,170.5,282.4,169.8,282.4
			z M169.6,277.7c-0.5,0-0.8,0.1-1,0.4c-0.2,0.3-0.3,0.7-0.3,1.3v0.2c0,0.7,0.1,1.1,0.3,1.4c0.2,0.3,0.5,0.4,1,0.4
			c0.4,0,0.7-0.2,0.9-0.5s0.3-0.8,0.3-1.4c0-0.6-0.1-1.1-0.3-1.4C170.3,277.9,170,277.7,169.6,277.7z"/>
		<path class="st7" d="M176.1,276.8c0.2,0,0.4,0,0.6,0l-0.1,1.1c-0.2,0-0.3-0.1-0.5-0.1c-0.5,0-0.8,0.1-1.1,0.4
			c-0.3,0.3-0.4,0.7-0.4,1.2v2.8h-1.1v-5.4h0.9l0.2,1h0.1c0.2-0.3,0.4-0.6,0.7-0.8C175.4,276.9,175.7,276.8,176.1,276.8z"/>
		<path class="st7" d="M177.6,275.4c0-0.2,0.1-0.4,0.2-0.5c0.1-0.1,0.3-0.2,0.5-0.2c0.2,0,0.4,0.1,0.5,0.2c0.1,0.1,0.2,0.3,0.2,0.5
			c0,0.2-0.1,0.3-0.2,0.5c-0.1,0.1-0.3,0.2-0.5,0.2c-0.2,0-0.4-0.1-0.5-0.2C177.6,275.8,177.6,275.6,177.6,275.4z M178.8,282.3h-1.1
			v-5.4h1.1V282.3z"/>
		<path class="st7" d="M184.1,280.7c0,0.5-0.2,0.9-0.6,1.2c-0.4,0.3-0.9,0.4-1.7,0.4c-0.7,0-1.3-0.1-1.7-0.3v-1
			c0.6,0.3,1.2,0.4,1.8,0.4c0.7,0,1.1-0.2,1.1-0.6c0-0.1,0-0.3-0.1-0.3s-0.2-0.2-0.4-0.3s-0.4-0.2-0.7-0.3c-0.6-0.2-1-0.5-1.3-0.7
			c-0.2-0.2-0.3-0.6-0.3-0.9c0-0.5,0.2-0.8,0.6-1.1c0.4-0.3,0.9-0.4,1.5-0.4c0.6,0,1.2,0.1,1.8,0.4l-0.4,0.9
			c-0.6-0.2-1.1-0.4-1.5-0.4c-0.6,0-0.9,0.2-0.9,0.5c0,0.2,0.1,0.3,0.2,0.4c0.2,0.1,0.5,0.3,1,0.5c0.4,0.2,0.8,0.3,1,0.5
			s0.4,0.3,0.4,0.5C184,280.3,184.1,280.5,184.1,280.7z"/>
		<path class="st7" d="M187.7,282.4c-0.8,0-1.5-0.2-2-0.7c-0.5-0.5-0.7-1.2-0.7-2c0-0.9,0.2-1.6,0.7-2.1s1-0.8,1.8-0.8
			c0.7,0,1.3,0.2,1.7,0.6s0.6,1,0.6,1.8v0.6h-3.6c0,0.5,0.2,0.9,0.4,1.2c0.3,0.3,0.6,0.4,1.1,0.4c0.3,0,0.6,0,0.9-0.1
			c0.3-0.1,0.6-0.2,0.9-0.3v0.9c-0.3,0.1-0.6,0.2-0.8,0.3S188,282.4,187.7,282.4z M187.4,277.7c-0.4,0-0.7,0.1-0.9,0.3
			c-0.2,0.2-0.4,0.6-0.4,1h2.5c0-0.4-0.1-0.8-0.3-1C188.1,277.8,187.8,277.7,187.4,277.7z"/>
		<path class="st7" d="M194.7,280.7c0,0.5-0.2,0.9-0.6,1.2c-0.4,0.3-0.9,0.4-1.7,0.4c-0.7,0-1.3-0.1-1.7-0.3v-1
			c0.6,0.3,1.2,0.4,1.8,0.4c0.7,0,1.1-0.2,1.1-0.6c0-0.1,0-0.3-0.1-0.3s-0.2-0.2-0.4-0.3s-0.4-0.2-0.7-0.3c-0.6-0.2-1-0.5-1.3-0.7
			c-0.2-0.2-0.3-0.6-0.3-0.9c0-0.5,0.2-0.8,0.6-1.1c0.4-0.3,0.9-0.4,1.5-0.4c0.6,0,1.2,0.1,1.8,0.4l-0.4,0.9
			c-0.6-0.2-1.1-0.4-1.5-0.4c-0.6,0-0.9,0.2-0.9,0.5c0,0.2,0.1,0.3,0.2,0.4c0.2,0.1,0.5,0.3,1,0.5c0.4,0.2,0.8,0.3,1,0.5
			s0.4,0.3,0.4,0.5C194.6,280.3,194.7,280.5,194.7,280.7z"/>
		<path class="st7" d="M197,277.9l-0.9-2.6h0c0,0.4,0,0.7,0,1.1v1.5h-0.5v-3.1h0.7l0.9,2.5h0l0.9-2.5h0.7v3.1h-0.5v-1.5
			c0-0.2,0-0.4,0-0.6c0-0.2,0-0.4,0-0.5h0l-0.9,2.6H197z"/>
		<path class="st7" d="M201,275.2c-0.3,0-0.5,0.1-0.7,0.3c-0.2,0.2-0.3,0.5-0.3,0.9c0,0.4,0.1,0.7,0.2,0.9c0.2,0.2,0.4,0.3,0.7,0.3
			c0.1,0,0.3,0,0.4,0c0.1,0,0.3-0.1,0.4-0.1v0.4c-0.2,0.1-0.5,0.1-0.8,0.1c-0.5,0-0.8-0.1-1-0.4c-0.2-0.3-0.4-0.7-0.4-1.2
			c0-0.3,0.1-0.6,0.2-0.8c0.1-0.2,0.3-0.4,0.5-0.6c0.2-0.1,0.5-0.2,0.8-0.2c0.3,0,0.6,0.1,0.9,0.2l-0.2,0.4c-0.1,0-0.2-0.1-0.3-0.1
			C201.2,275.2,201.1,275.2,201,275.2z"/>
	</g>
</g>
</svg>
