<?xml version="1.0" encoding="utf-8"?>
<!-- Generator: Adobe Illustrator 23.0.2, SVG Export Plug-In . SVG Version: 6.00 Build 0)  -->
<svg version="1.1" id="Layer_1" xmlns="http://www.w3.org/2000/svg" x="0px" y="0px"
     viewBox="0 0 187 171.8" style="enable-background:new 0 0 187 171.8;" xml:space="preserve">
<style type="text/css">
	.st0{fill:#778F9B;}
	.st1{fill:none;stroke:#F2F4F7;stroke-width:8;stroke-linecap:round;}
	.st2{fill:none;stroke:#94DE9C;stroke-width:8;stroke-linecap:round;}
	.st3{fill:none;stroke:#B9F1BF;stroke-width:8;stroke-linecap:round;}
	.st4{fill:#001226;}
	.st5{fill:#9E1B32;}
</style>
<g id="BM-certification-score-D" transform="translate(-744 -160)">
	<g>
		<path class="st0" d="M787.1,281.1c0,0.6-0.2,1.1-0.7,1.5s-1.1,0.5-1.9,0.5s-1.5-0.1-2-0.4v-1.1c0.3,0.2,0.7,0.3,1,0.4
			s0.7,0.1,1,0.1c0.5,0,0.8-0.1,1-0.3s0.3-0.4,0.3-0.7c0-0.3-0.1-0.5-0.3-0.7s-0.6-0.4-1.2-0.7c-0.7-0.3-1.1-0.6-1.4-0.9
			s-0.4-0.7-0.4-1.2c0-0.6,0.2-1.1,0.6-1.4s1-0.5,1.7-0.5c0.7,0,1.4,0.1,2,0.4l-0.4,1c-0.6-0.3-1.2-0.4-1.7-0.4
			c-0.4,0-0.7,0.1-0.9,0.2c-0.2,0.2-0.3,0.4-0.3,0.7c0,0.2,0,0.3,0.1,0.5c0.1,0.1,0.2,0.3,0.4,0.4s0.5,0.3,1,0.5
			c0.5,0.2,0.9,0.4,1.2,0.6s0.4,0.4,0.5,0.6S787.1,280.7,787.1,281.1z"/>
		<path class="st0" d="M792.9,283h-1.2v-3.3c0-0.4-0.1-0.7-0.2-0.9c-0.2-0.2-0.4-0.3-0.7-0.3c-0.4,0-0.8,0.1-1,0.4
			c-0.2,0.3-0.3,0.8-0.3,1.4v2.7h-1.1v-5.4h0.9l0.2,0.7h0.1c0.1-0.3,0.4-0.5,0.7-0.6s0.6-0.2,0.9-0.2c0.8,0,1.4,0.3,1.7,0.8h0.1
			c0.2-0.3,0.4-0.5,0.7-0.6s0.6-0.2,1-0.2c0.6,0,1.1,0.2,1.4,0.5s0.4,0.8,0.4,1.5v3.5h-1.1v-3.3c0-0.4-0.1-0.7-0.2-0.9
			c-0.2-0.2-0.4-0.3-0.7-0.3c-0.4,0-0.8,0.1-1,0.4c-0.2,0.3-0.3,0.7-0.3,1.3V283z"/>
		<path class="st0" d="M801.3,283l-0.2-0.8h0c-0.3,0.3-0.5,0.6-0.8,0.7c-0.3,0.1-0.6,0.2-1,0.2c-0.5,0-0.9-0.1-1.2-0.4
			s-0.4-0.7-0.4-1.2c0-0.6,0.2-1,0.6-1.3s1-0.4,1.9-0.5l0.9,0v-0.3c0-0.3-0.1-0.6-0.2-0.8c-0.2-0.2-0.4-0.3-0.7-0.3
			c-0.3,0-0.5,0-0.8,0.1s-0.5,0.2-0.7,0.3l-0.4-0.8c0.3-0.2,0.6-0.3,1-0.3c0.3-0.1,0.7-0.1,1-0.1c0.7,0,1.2,0.1,1.6,0.4
			s0.5,0.8,0.5,1.4v3.6H801.3z M799.6,282.2c0.4,0,0.8-0.1,1-0.3c0.3-0.2,0.4-0.6,0.4-1v-0.5l-0.7,0c-0.5,0-0.9,0.1-1.2,0.3
			c-0.2,0.2-0.4,0.4-0.4,0.7c0,0.2,0.1,0.4,0.2,0.6C799.1,282.2,799.3,282.2,799.6,282.2z"/>
		<path class="st0" d="M804.9,283h-1.1v-7.6h1.1V283z"/>
		<path class="st0" d="M807.7,283h-1.1v-7.6h1.1V283z"/>
		<path class="st0" d="M812,275.9h2.1c1,0,1.7,0.1,2.1,0.4s0.7,0.7,0.7,1.4c0,0.4-0.1,0.8-0.3,1s-0.5,0.5-0.9,0.5v0
			c0.5,0.1,0.9,0.3,1.1,0.6c0.2,0.3,0.4,0.7,0.4,1.1c0,0.6-0.2,1.1-0.7,1.5c-0.4,0.4-1.1,0.5-1.9,0.5H812V275.9z M813.2,278.8h1.1
			c0.5,0,0.8-0.1,1.1-0.2c0.2-0.2,0.3-0.4,0.3-0.8c0-0.3-0.1-0.6-0.4-0.7s-0.6-0.2-1.2-0.2h-1V278.8z M813.2,279.8v2.3h1.2
			c0.5,0,0.9-0.1,1.1-0.3c0.2-0.2,0.4-0.5,0.4-0.9c0-0.4-0.1-0.6-0.4-0.8s-0.6-0.3-1.2-0.3H813.2z"/>
		<path class="st0" d="M822.3,283l-0.2-0.7h-0.1c-0.2,0.3-0.4,0.4-0.7,0.6s-0.6,0.2-1,0.2c-0.7,0-1.1-0.2-1.5-0.5s-0.5-0.8-0.5-1.5
			v-3.5h1.2v3.3c0,0.4,0.1,0.7,0.3,0.9c0.2,0.2,0.4,0.3,0.8,0.3c0.5,0,0.8-0.1,1.1-0.4c0.2-0.3,0.3-0.8,0.3-1.4v-2.7h1.2v5.4H822.3z
			"/>
		<path class="st0" d="M828.5,281.5c0,0.5-0.2,0.9-0.6,1.2c-0.4,0.3-0.9,0.4-1.7,0.4c-0.7,0-1.3-0.1-1.7-0.3v-1
			c0.6,0.3,1.2,0.4,1.8,0.4c0.7,0,1.1-0.2,1.1-0.6c0-0.1,0-0.3-0.1-0.3s-0.2-0.2-0.4-0.3s-0.4-0.2-0.7-0.3c-0.6-0.2-1-0.5-1.3-0.7
			s-0.3-0.6-0.3-0.9c0-0.5,0.2-0.8,0.6-1.1c0.4-0.3,0.9-0.4,1.5-0.4c0.6,0,1.2,0.1,1.8,0.4l-0.4,0.9c-0.6-0.2-1.1-0.4-1.5-0.4
			c-0.6,0-0.9,0.2-0.9,0.5c0,0.2,0.1,0.3,0.2,0.4s0.5,0.3,1,0.5c0.4,0.2,0.8,0.3,1,0.5s0.4,0.3,0.4,0.5
			C828.4,281,828.5,281.2,828.5,281.5z"/>
		<path class="st0" d="M829.7,276.2c0-0.2,0.1-0.4,0.2-0.5s0.3-0.2,0.5-0.2c0.2,0,0.4,0.1,0.5,0.2s0.2,0.3,0.2,0.5
			c0,0.2-0.1,0.3-0.2,0.5c-0.1,0.1-0.3,0.2-0.5,0.2c-0.2,0-0.4-0.1-0.5-0.2C829.7,276.5,829.7,276.4,829.7,276.2z M830.9,283h-1.1
			v-5.4h1.1V283z"/>
		<path class="st0" d="M837.3,283h-1.2v-3.3c0-0.4-0.1-0.7-0.3-0.9s-0.4-0.3-0.8-0.3c-0.5,0-0.8,0.1-1.1,0.4s-0.3,0.8-0.3,1.4v2.7
			h-1.1v-5.4h0.9l0.2,0.7h0.1c0.2-0.3,0.4-0.5,0.7-0.6s0.6-0.2,1-0.2c1.3,0,1.9,0.7,1.9,2V283z"/>
		<path class="st0" d="M841.2,283.1c-0.8,0-1.5-0.2-2-0.7c-0.5-0.5-0.7-1.2-0.7-2c0-0.9,0.2-1.6,0.7-2.1s1-0.8,1.8-0.8
			c0.7,0,1.3,0.2,1.7,0.6s0.6,1,0.6,1.8v0.6h-3.6c0,0.5,0.2,0.9,0.4,1.2c0.3,0.3,0.6,0.4,1.1,0.4c0.3,0,0.6,0,0.9-0.1
			c0.3-0.1,0.6-0.2,0.9-0.3v0.9c-0.3,0.1-0.6,0.2-0.8,0.3S841.6,283.1,841.2,283.1z M841,278.4c-0.4,0-0.7,0.1-0.9,0.3
			c-0.2,0.2-0.4,0.6-0.4,1h2.5c0-0.4-0.1-0.8-0.3-1C841.7,278.5,841.4,278.4,841,278.4z"/>
		<path class="st0" d="M848.2,281.5c0,0.5-0.2,0.9-0.6,1.2c-0.4,0.3-0.9,0.4-1.7,0.4c-0.7,0-1.3-0.1-1.7-0.3v-1
			c0.6,0.3,1.2,0.4,1.8,0.4c0.7,0,1.1-0.2,1.1-0.6c0-0.1,0-0.3-0.1-0.3s-0.2-0.2-0.4-0.3s-0.4-0.2-0.7-0.3c-0.6-0.2-1-0.5-1.3-0.7
			c-0.2-0.2-0.3-0.6-0.3-0.9c0-0.5,0.2-0.8,0.6-1.1c0.4-0.3,0.9-0.4,1.5-0.4c0.6,0,1.2,0.1,1.8,0.4l-0.4,0.9
			c-0.6-0.2-1.1-0.4-1.5-0.4c-0.6,0-0.9,0.2-0.9,0.5c0,0.2,0.1,0.3,0.2,0.4c0.2,0.1,0.5,0.3,1,0.5c0.4,0.2,0.8,0.3,1,0.5
			s0.4,0.3,0.4,0.5C848.2,281,848.2,281.2,848.2,281.5z"/>
		<path class="st0" d="M853.1,281.5c0,0.5-0.2,0.9-0.6,1.2c-0.4,0.3-0.9,0.4-1.7,0.4c-0.7,0-1.3-0.1-1.7-0.3v-1
			c0.6,0.3,1.2,0.4,1.8,0.4c0.7,0,1.1-0.2,1.1-0.6c0-0.1,0-0.3-0.1-0.3s-0.2-0.2-0.4-0.3s-0.4-0.2-0.7-0.3c-0.6-0.2-1-0.5-1.3-0.7
			c-0.2-0.2-0.3-0.6-0.3-0.9c0-0.5,0.2-0.8,0.6-1.1c0.4-0.3,0.9-0.4,1.5-0.4c0.6,0,1.2,0.1,1.8,0.4l-0.4,0.9
			c-0.6-0.2-1.1-0.4-1.5-0.4c-0.6,0-0.9,0.2-0.9,0.5c0,0.2,0.1,0.3,0.2,0.4c0.2,0.1,0.5,0.3,1,0.5c0.4,0.2,0.8,0.3,1,0.5
			s0.4,0.3,0.4,0.5C853.1,281,853.1,281.2,853.1,281.5z"/>
		<path class="st0" d="M860,279.1h2.6v3.6c-0.4,0.1-0.8,0.2-1.2,0.3c-0.4,0.1-0.8,0.1-1.3,0.1c-1.1,0-1.9-0.3-2.5-1
			c-0.6-0.6-0.9-1.5-0.9-2.7c0-1.1,0.3-2,1-2.7c0.7-0.6,1.6-1,2.7-1c0.7,0,1.5,0.1,2.1,0.4l-0.4,1c-0.6-0.3-1.2-0.4-1.7-0.4
			c-0.8,0-1.4,0.2-1.8,0.7s-0.7,1.1-0.7,2c0,0.9,0.2,1.5,0.6,2c0.4,0.5,1,0.7,1.7,0.7c0.4,0,0.8,0,1.2-0.1v-1.8H860V279.1z"/>
		<path class="st0" d="M867,277.5c0.2,0,0.4,0,0.6,0l-0.1,1.1c-0.2,0-0.3-0.1-0.5-0.1c-0.5,0-0.8,0.1-1.1,0.4
			c-0.3,0.3-0.4,0.7-0.4,1.2v2.8h-1.1v-5.4h0.9l0.2,1h0.1c0.2-0.3,0.4-0.6,0.7-0.8C866.3,277.6,866.6,277.5,867,277.5z"/>
		<path class="st0" d="M871.9,283l-0.2-0.8h0c-0.3,0.3-0.5,0.6-0.8,0.7c-0.3,0.1-0.6,0.2-1,0.2c-0.5,0-0.9-0.1-1.2-0.4
			c-0.3-0.3-0.4-0.7-0.4-1.2c0-0.6,0.2-1,0.6-1.3s1-0.4,1.9-0.5l0.9,0v-0.3c0-0.3-0.1-0.6-0.2-0.8c-0.2-0.2-0.4-0.3-0.8-0.3
			c-0.3,0-0.5,0-0.8,0.1s-0.5,0.2-0.7,0.3l-0.4-0.8c0.3-0.2,0.6-0.3,1-0.3c0.3-0.1,0.7-0.1,1-0.1c0.7,0,1.2,0.1,1.6,0.4
			c0.4,0.3,0.5,0.8,0.5,1.4v3.6H871.9z M870.2,282.2c0.4,0,0.8-0.1,1-0.3c0.3-0.2,0.4-0.6,0.4-1v-0.5l-0.7,0c-0.5,0-0.9,0.1-1.2,0.3
			c-0.2,0.2-0.4,0.4-0.4,0.7c0,0.2,0.1,0.4,0.2,0.6C869.7,282.2,869.9,282.2,870.2,282.2z"/>
		<path class="st0" d="M876.1,283.1c-0.7,0-1.2-0.2-1.6-0.7s-0.6-1.2-0.6-2.1c0-0.9,0.2-1.6,0.6-2.1c0.4-0.5,0.9-0.7,1.6-0.7
			c0.7,0,1.2,0.3,1.6,0.8h0.1c-0.1-0.4-0.1-0.7-0.1-0.9v-2h1.2v7.6H878l-0.2-0.7h-0.1C877.4,282.8,876.9,283.1,876.1,283.1z
			 M876.5,282.2c0.5,0,0.8-0.1,1-0.4c0.2-0.3,0.3-0.7,0.3-1.3v-0.2c0-0.7-0.1-1.2-0.3-1.5s-0.6-0.4-1-0.4c-0.4,0-0.7,0.2-0.9,0.5
			c-0.2,0.3-0.3,0.8-0.3,1.4c0,0.6,0.1,1.1,0.3,1.4C875.7,282,876,282.2,876.5,282.2z"/>
		<path class="st0" d="M882.9,283.1c-0.8,0-1.5-0.2-2-0.7c-0.5-0.5-0.7-1.2-0.7-2c0-0.9,0.2-1.6,0.7-2.1s1-0.8,1.8-0.8
			c0.7,0,1.3,0.2,1.7,0.6s0.6,1,0.6,1.8v0.6h-3.6c0,0.5,0.2,0.9,0.4,1.2c0.3,0.3,0.6,0.4,1.1,0.4c0.3,0,0.6,0,0.9-0.1
			c0.3-0.1,0.6-0.2,0.9-0.3v0.9c-0.3,0.1-0.6,0.2-0.8,0.3S883.3,283.1,882.9,283.1z M882.7,278.4c-0.4,0-0.7,0.1-0.9,0.3
			c-0.2,0.2-0.4,0.6-0.4,1h2.5c0-0.4-0.1-0.8-0.3-1C883.4,278.5,883.1,278.4,882.7,278.4z"/>
		<path class="st0" d="M887.3,279.4h-0.7v-2.9h-1v-0.6h2.7v0.6h-1V279.4z M890.2,279.4l-0.9-2.7h0l0,0.6v2.1h-0.7v-3.5h1.1l0.9,2.6
			l0.9-2.6h1v3.5h-0.7v-2l0-0.6h0l-0.9,2.7H890.2z"/>
	</g>
	<g id="Score-A" transform="translate(748 164)">
		<path id="Oval-14" class="st1" d="M148.1,157.2c14.3-12.4,24.3-28.9,28.6-47.4"/>
		<path id="Path" class="st1" d="M178.8,96c0.2-2.1,0.2-4.3,0.2-6.5c0-22.8-8.7-44.8-24.4-61.4"/>
		<path id="Path-2" class="st1" d="M143.6,18.2C111.7-6,67.6-6.1,35.7,18"/>
		<path id="Path-3" class="st2" d="M24.5,27.9C8.8,44.5,0,66.6,0,89.5c0,2.2,0.1,4.4,0.2,6.5"/>
		<path id="Path-4" class="st3" d="M2.3,109.9c4.3,18.5,14.4,35.1,28.8,47.5"/>
	</g>
	<path id="A" class="st4" d="M858.6,238.8c0,8.5-2.4,14.9-7.2,19.4s-11.8,6.8-20.9,6.8H816v-51.4h16.1c8.4,0,14.9,2.2,19.5,6.6
		C856.3,224.7,858.6,230.9,858.6,238.8z M847.3,239.1c0-11-4.9-16.6-14.6-16.6h-5.8V256h4.7C842.1,256,847.3,250.4,847.3,239.1z"/>
	<g id="Equifax_er_rgb" transform="translate(796 316)">
		<path id="Shape" class="st5" d="M83.3,1.1c0.5,0,0.9,0.3,1.1,0.7c0.2,0.5,0.1,1-0.3,1.3c-0.3,0.3-0.9,0.5-1.3,0.3
			c-0.5-0.2-0.8-0.6-0.8-1.1c0-0.3,0.1-0.6,0.3-0.9C82.7,1.3,83,1.1,83.3,1.1z M83.3,1.3c-0.6,0-1,0.5-1,1.1c0,0.5,0.4,0.9,1,1
			c0.3,0,0.5-0.1,0.7-0.3c0.2-0.2,0.3-0.4,0.3-0.7c0-0.3-0.1-0.5-0.3-0.7C83.9,1.4,83.6,1.3,83.3,1.3z M83.1,3h-0.2V1.7
			c0.1,0,0.3,0,0.4,0c0.1,0,0.3,0,0.4,0.1c0.1,0.1,0.1,0.2,0.1,0.3c0,0.2-0.1,0.3-0.3,0.3c0.1,0,0.2,0.1,0.2,0.3
			c0,0.1,0,0.2,0.1,0.3h-0.2c-0.1-0.1-0.1-0.2-0.1-0.3c0-0.1,0-0.1-0.1-0.2c-0.1,0-0.1-0.1-0.2-0.1h-0.2V3z M83.1,2.3h0.2
			c0.2,0,0.3-0.1,0.3-0.2s-0.1-0.2-0.3-0.2h-0.2V2.3z"/>
		<path id="Shape-2" class="st5" d="M0.5,12L3.2,0.2h10.6l-0.5,2.4H7.4L7,4.5h5.1l-0.5,2.4H6.5L5.9,9.5h6L11.4,12H0.5z"/>
		<path id="Shape-3" class="st5" d="M13.3,5.1c1.1-4.2,4-4.1,7.4-4.1c2.4,0,6,0.1,5.4,3.7c0,0-0.1,1-0.4,2.2H22l7.5,8.9h-5l-3.2-3.8
			c-1,0.3-2.1,0.4-3.2,0.4c-2-0.1-5.6,0-5.4-3.4C12.8,7.6,13,6.3,13.3,5.1 M17.9,4.5c-0.5,1.3-0.8,2.6-1,4c-0.3,1.4,0.8,1.9,1.7,1.9
			c1,0,1.9-0.6,2.3-1.5c0.5-1.3,0.8-2.7,1-4C22.2,4.1,21.8,3.3,21,3c-0.3-0.1-0.5-0.1-0.8,0C19.2,2.9,18.3,3.5,17.9,4.5"/>
		<path id="Shape-4" class="st5" d="M28.1,1.5h4.3c0,0-1.4,6-1.7,7.5c0,0.3,0.2,0.7,0.4,0.9c0.3,0.2,0.6,0.4,0.9,0.3
			c0,0,1.7,0.3,2.1-1.1l1.7-7.6h4.4c0,0-1.7,7.6-2,8.5s-1.7,2.2-5,2.4c-0.9,0-1.8,0-2.7-0.1l-3.9-4.6C26.7,7.6,27.7,2.7,28.1,1.5"/>
		<path id="Shape-5" class="st5" d="M41.9,1.5h4.4L44,12h-4.3L41.9,1.5z"/>
		<path id="Shape-6" class="st5" d="M50.1,12h-4.4L48,1.5h9.5l-0.5,2h-5l-0.5,1.9h4.3l-0.4,2h-4.2L50.1,12z"/>
		<path id="Shape-7" class="st5" d="M56,12H53l7.4-10.5h5.3l1.1,8.5l3.6-3.2l-3.5-5.3h5.6l1.7,2.7l2.7-2.7h4.3l-5.6,4.8l3.6,5.6
			h-5.4L72,8.8l-3,3.1h-6.5l-0.2-2.3h-4.6L56,12z M59.1,7.4h2.8l-0.3-3.5L59.1,7.4z"/>
	</g>
</g>
</svg>
