<?xml version="1.0" encoding="utf-8"?>
<!-- Generator: Adobe Illustrator 23.0.2, SVG Export Plug-In . SVG Version: 6.00 Build 0)  -->
<svg version="1.1" id="Layer_1" xmlns="http://www.w3.org/2000/svg" x="0px" y="0px"
     viewBox="0 0 187 171.8" style="enable-background:new 0 0 187 171.8;" xml:space="preserve">
<style type="text/css">
	.st0{fill:#778F9B;}
	.st1{fill:none;stroke:#F2F4F7;stroke-width:8;stroke-linecap:round;}
	.st2{fill:none;stroke:#7BD284;stroke-width:8;stroke-linecap:round;}
	.st3{fill:none;stroke:#94DE9C;stroke-width:8;stroke-linecap:round;}
	.st4{fill:none;stroke:#B9F1BF;stroke-width:8;stroke-linecap:round;}
	.st5{fill:#001226;}
	.st6{fill:#9E1B32;}
</style>
<g id="BM-certification-score-C" transform="translate(-510 -160)">
	<g>
		<path class="st0" d="M552.3,279.8c-0.2-0.2-0.6-0.4-1.2-0.6c-0.5-0.2-0.8-0.3-1-0.5s-0.3-0.2-0.4-0.4c-0.1-0.1-0.1-0.3-0.1-0.5
			c0-0.3,0.1-0.5,0.3-0.7c0.2-0.2,0.5-0.2,0.9-0.2c0.5,0,1.1,0.1,1.7,0.4l0.4-1c-0.7-0.3-1.4-0.4-2-0.4c-0.7,0-1.3,0.2-1.7,0.5
			s-0.6,0.8-0.6,1.4c0,0.5,0.1,0.9,0.4,1.2s0.7,0.6,1.4,0.9c0.6,0.3,1,0.5,1.2,0.7s0.3,0.4,0.3,0.7c0,0.3-0.1,0.5-0.3,0.7
			s-0.6,0.3-1,0.3c-0.3,0-0.7,0-1-0.1s-0.7-0.2-1-0.4v1.1c0.5,0.3,1.2,0.4,2,0.4s1.4-0.2,1.9-0.5s0.7-0.9,0.7-1.5
			c0-0.3-0.1-0.6-0.2-0.8S552.6,279.9,552.3,279.8z"/>
		<path class="st0" d="M560.4,277.7c-0.4,0-0.7,0.1-1,0.2s-0.5,0.4-0.7,0.6h-0.1c-0.3-0.6-0.8-0.8-1.7-0.8c-0.3,0-0.7,0.1-0.9,0.2
			s-0.5,0.3-0.7,0.6h-0.1l-0.2-0.7h-0.9v5.4h1.1v-2.7c0-0.7,0.1-1.1,0.3-1.4c0.2-0.3,0.5-0.4,1-0.4c0.3,0,0.6,0.1,0.7,0.3
			c0.2,0.2,0.2,0.5,0.2,0.9v3.3h1.2v-2.9c0-0.6,0.1-1,0.3-1.3c0.2-0.3,0.5-0.4,1-0.4c0.3,0,0.6,0.1,0.7,0.3c0.2,0.2,0.2,0.5,0.2,0.9
			v3.3h1.1v-3.5c0-0.7-0.1-1.2-0.4-1.5S561,277.7,560.4,277.7z"/>
		<path class="st0" d="M566,277.7c-0.3,0-0.6,0-1,0.1c-0.3,0.1-0.7,0.2-1,0.3l0.4,0.8c0.2-0.1,0.5-0.2,0.7-0.3s0.5-0.1,0.8-0.1
			c0.3,0,0.6,0.1,0.7,0.3c0.2,0.2,0.2,0.4,0.2,0.8v0.3l-0.9,0c-0.8,0-1.5,0.2-1.9,0.5s-0.6,0.7-0.6,1.3c0,0.5,0.1,0.9,0.4,1.2
			s0.7,0.4,1.2,0.4c0.4,0,0.8-0.1,1-0.2c0.3-0.1,0.5-0.3,0.8-0.7h0l0.2,0.8h0.8v-3.6c0-0.6-0.2-1.1-0.5-1.4S566.6,277.7,566,277.7z
			 M566.9,281.1c0,0.4-0.1,0.7-0.4,1c-0.3,0.2-0.6,0.3-1,0.3c-0.3,0-0.5-0.1-0.6-0.2c-0.1-0.1-0.2-0.3-0.2-0.6
			c0-0.3,0.1-0.6,0.4-0.7c0.2-0.2,0.6-0.3,1.2-0.3l0.7,0V281.1z"/>
		<rect x="569.6" y="275.6" class="st0" width="1.1" height="7.6"/>
		<rect x="572.4" y="275.6" class="st0" width="1.1" height="7.6"/>
		<path class="st0" d="M581.6,279.4L581.6,279.4c0.4-0.1,0.7-0.3,0.9-0.6s0.3-0.6,0.3-1c0-0.6-0.2-1.1-0.7-1.4s-1.1-0.4-2.1-0.4
			h-2.1v7.1h2.6c0.8,0,1.4-0.2,1.9-0.5c0.4-0.4,0.7-0.9,0.7-1.5c0-0.5-0.1-0.9-0.4-1.1C582.5,279.7,582.1,279.5,581.6,279.4z
			 M579.1,277h1c0.5,0,0.9,0.1,1.2,0.2s0.4,0.4,0.4,0.7c0,0.4-0.1,0.6-0.3,0.8c-0.2,0.2-0.6,0.2-1.1,0.2h-1.1V277z M581.5,281.9
			c-0.2,0.2-0.6,0.3-1.1,0.3h-1.2v-2.3h1.2c0.5,0,0.9,0.1,1.2,0.3s0.4,0.5,0.4,0.8C581.8,281.4,581.7,281.7,581.5,281.9z"/>
		<path class="st0" d="M588,280.5c0,0.7-0.1,1.2-0.3,1.4c-0.2,0.3-0.6,0.4-1.1,0.4c-0.4,0-0.6-0.1-0.8-0.3c-0.2-0.2-0.3-0.5-0.3-0.9
			v-3.3h-1.2v3.5c0,0.7,0.2,1.2,0.5,1.5s0.8,0.5,1.5,0.5c0.4,0,0.7-0.1,1-0.2s0.5-0.3,0.7-0.6h0.1l0.2,0.7h0.9v-5.4H588V280.5z"/>
		<path class="st0" d="M593.8,280.5c-0.2-0.1-0.5-0.3-1-0.5c-0.5-0.2-0.9-0.4-1-0.5s-0.2-0.3-0.2-0.4c0-0.3,0.3-0.5,0.9-0.5
			c0.4,0,0.9,0.1,1.5,0.4l0.4-0.9c-0.6-0.3-1.2-0.4-1.8-0.4c-0.6,0-1.1,0.1-1.5,0.4c-0.4,0.3-0.6,0.6-0.6,1.1c0,0.4,0.1,0.7,0.3,0.9
			s0.6,0.5,1.3,0.7c0.3,0.1,0.6,0.2,0.7,0.3s0.3,0.2,0.4,0.3s0.1,0.2,0.1,0.3c0,0.4-0.4,0.6-1.1,0.6c-0.5,0-1.1-0.1-1.8-0.4v1
			c0.4,0.2,1,0.3,1.7,0.3c0.7,0,1.3-0.1,1.7-0.4c0.4-0.3,0.6-0.7,0.6-1.2c0-0.3,0-0.5-0.1-0.7C594.2,280.8,594,280.6,593.8,280.5z"
			/>
		<rect x="595.6" y="277.8" class="st0" width="1.1" height="5.4"/>
		<path class="st0" d="M596.2,275.7c-0.2,0-0.4,0.1-0.5,0.2s-0.2,0.3-0.2,0.5c0,0.2,0.1,0.3,0.2,0.5c0.1,0.1,0.3,0.2,0.5,0.2
			c0.2,0,0.4-0.1,0.5-0.2c0.1-0.1,0.2-0.3,0.2-0.5c0-0.2-0.1-0.4-0.2-0.5S596.4,275.7,596.2,275.7z"/>
		<path class="st0" d="M601.2,277.7c-0.4,0-0.7,0.1-1,0.2s-0.5,0.3-0.7,0.6h-0.1l-0.2-0.7h-0.9v5.4h1.1v-2.7c0-0.7,0.1-1.2,0.3-1.4
			s0.6-0.4,1.1-0.4c0.4,0,0.6,0.1,0.8,0.3s0.3,0.5,0.3,0.9v3.3h1.2v-3.5C603.2,278.3,602.5,277.7,601.2,277.7z"/>
		<path class="st0" d="M606.9,277.7c-0.8,0-1.4,0.3-1.8,0.8s-0.7,1.2-0.7,2.1c0,0.9,0.2,1.5,0.7,2c0.5,0.5,1.1,0.7,2,0.7
			c0.4,0,0.7,0,1-0.1s0.6-0.1,0.8-0.3V282c-0.3,0.1-0.6,0.2-0.9,0.3c-0.3,0.1-0.6,0.1-0.9,0.1c-0.5,0-0.9-0.1-1.1-0.4
			c-0.3-0.3-0.4-0.7-0.4-1.2h3.6v-0.6c0-0.8-0.2-1.4-0.6-1.8S607.6,277.7,606.9,277.7z M605.7,279.9c0-0.4,0.2-0.8,0.4-1
			c0.2-0.2,0.5-0.3,0.9-0.3s0.7,0.1,0.9,0.3c0.2,0.2,0.3,0.6,0.3,1H605.7z"/>
		<path class="st0" d="M613.6,280.5c-0.2-0.1-0.5-0.3-1-0.5c-0.5-0.2-0.9-0.4-1-0.5c-0.2-0.1-0.2-0.3-0.2-0.4c0-0.3,0.3-0.5,0.9-0.5
			c0.4,0,0.9,0.1,1.5,0.4l0.4-0.9c-0.6-0.3-1.2-0.4-1.8-0.4c-0.6,0-1.1,0.1-1.5,0.4c-0.4,0.3-0.6,0.6-0.6,1.1c0,0.4,0.1,0.7,0.3,0.9
			c0.2,0.2,0.6,0.5,1.3,0.7c0.3,0.1,0.6,0.2,0.7,0.3s0.3,0.2,0.4,0.3s0.1,0.2,0.1,0.3c0,0.4-0.4,0.6-1.1,0.6c-0.5,0-1.1-0.1-1.8-0.4
			v1c0.4,0.2,1,0.3,1.7,0.3c0.7,0,1.3-0.1,1.7-0.4c0.4-0.3,0.6-0.7,0.6-1.2c0-0.3,0-0.5-0.1-0.7
			C613.9,280.8,613.8,280.6,613.6,280.5z"/>
		<path class="st0" d="M618.4,280.5c-0.2-0.1-0.5-0.3-1-0.5c-0.5-0.2-0.9-0.4-1-0.5c-0.2-0.1-0.2-0.3-0.2-0.4c0-0.3,0.3-0.5,0.9-0.5
			c0.4,0,0.9,0.1,1.5,0.4l0.4-0.9c-0.6-0.3-1.2-0.4-1.8-0.4c-0.6,0-1.1,0.1-1.5,0.4c-0.4,0.3-0.6,0.6-0.6,1.1c0,0.4,0.1,0.7,0.3,0.9
			c0.2,0.2,0.6,0.5,1.3,0.7c0.3,0.1,0.6,0.2,0.7,0.3s0.3,0.2,0.4,0.3s0.1,0.2,0.1,0.3c0,0.4-0.4,0.6-1.1,0.6c-0.5,0-1.1-0.1-1.8-0.4
			v1c0.4,0.2,1,0.3,1.7,0.3c0.7,0,1.3-0.1,1.7-0.4c0.4-0.3,0.6-0.7,0.6-1.2c0-0.3,0-0.5-0.1-0.7
			C618.8,280.8,618.6,280.6,618.4,280.5z"/>
		<path class="st0" d="M625.9,280.3h1.5v1.8c-0.4,0.1-0.8,0.1-1.2,0.1c-0.7,0-1.3-0.2-1.7-0.7c-0.4-0.5-0.6-1.1-0.6-2
			c0-0.8,0.2-1.5,0.7-2s1-0.7,1.8-0.7c0.6,0,1.2,0.1,1.7,0.4l0.4-1c-0.7-0.3-1.4-0.4-2.1-0.4c-1.2,0-2.1,0.3-2.7,1
			c-0.7,0.7-1,1.5-1,2.7c0,1.2,0.3,2.1,0.9,2.7c0.6,0.6,1.4,1,2.5,1c0.5,0,0.9,0,1.3-0.1c0.4-0.1,0.8-0.2,1.2-0.3v-3.6h-2.6V280.3z"
			/>
		<path class="st0" d="M631.9,278c-0.3,0.2-0.5,0.4-0.7,0.8h-0.1l-0.2-1h-0.9v5.4h1.1v-2.8c0-0.5,0.1-0.9,0.4-1.2
			c0.3-0.3,0.7-0.4,1.1-0.4c0.2,0,0.3,0,0.5,0.1l0.1-1.1c-0.1,0-0.3,0-0.6,0C632.5,277.7,632.2,277.8,631.9,278z"/>
		<path class="st0" d="M636.6,277.7c-0.3,0-0.6,0-1,0.1c-0.3,0.1-0.7,0.2-1,0.3l0.4,0.8c0.2-0.1,0.5-0.2,0.7-0.3s0.5-0.1,0.8-0.1
			c0.3,0,0.6,0.1,0.8,0.3c0.2,0.2,0.2,0.4,0.2,0.8v0.3l-0.9,0c-0.8,0-1.5,0.2-1.9,0.5s-0.6,0.7-0.6,1.3c0,0.5,0.1,0.9,0.4,1.2
			c0.3,0.3,0.7,0.4,1.2,0.4c0.4,0,0.8-0.1,1-0.2c0.3-0.1,0.5-0.3,0.8-0.7h0l0.2,0.8h0.8v-3.6c0-0.6-0.2-1.1-0.5-1.4
			C637.8,277.8,637.2,277.7,636.6,277.7z M637.5,281.1c0,0.4-0.1,0.7-0.4,1c-0.3,0.2-0.6,0.3-1,0.3c-0.3,0-0.5-0.1-0.6-0.2
			c-0.1-0.1-0.2-0.3-0.2-0.6c0-0.3,0.1-0.6,0.4-0.7c0.2-0.2,0.6-0.3,1.2-0.3l0.7,0V281.1z"/>
		<path class="st0" d="M643.7,277.5c0,0.2,0,0.5,0.1,0.9h-0.1c-0.4-0.5-0.9-0.8-1.6-0.8c-0.7,0-1.2,0.2-1.6,0.7
			c-0.4,0.5-0.6,1.2-0.6,2.1c0,0.9,0.2,1.6,0.6,2.1s0.9,0.7,1.6,0.7c0.7,0,1.2-0.3,1.6-0.8h0.1l0.2,0.7h0.9v-7.6h-1.2V277.5z
			 M643.7,280.7c0,0.6-0.1,1-0.3,1.3c-0.2,0.3-0.6,0.4-1,0.4c-0.4,0-0.7-0.2-1-0.5c-0.2-0.3-0.3-0.8-0.3-1.4c0-0.6,0.1-1.1,0.3-1.4
			c0.2-0.3,0.5-0.5,0.9-0.5c0.5,0,0.8,0.1,1,0.4s0.3,0.8,0.3,1.5V280.7z"/>
		<path class="st0" d="M648.6,277.7c-0.8,0-1.4,0.3-1.8,0.8s-0.7,1.2-0.7,2.1c0,0.9,0.2,1.5,0.7,2c0.5,0.5,1.1,0.7,2,0.7
			c0.4,0,0.7,0,1-0.1s0.6-0.1,0.8-0.3V282c-0.3,0.1-0.6,0.2-0.9,0.3c-0.3,0.1-0.6,0.1-0.9,0.1c-0.5,0-0.9-0.1-1.1-0.4
			c-0.3-0.3-0.4-0.7-0.4-1.2h3.6v-0.6c0-0.8-0.2-1.4-0.6-1.8S649.3,277.7,648.6,277.7z M647.3,279.9c0-0.4,0.2-0.8,0.4-1
			c0.2-0.2,0.5-0.3,0.9-0.3s0.7,0.1,0.9,0.3c0.2,0.2,0.3,0.6,0.3,1H647.3z"/>
		<polygon class="st0" points="657.4,276 656.4,278.6 655.6,276 654.5,276 654.5,279.6 655.2,279.6 655.2,277.5 655.2,276.9 
			655.2,276.9 656.1,279.6 656.7,279.6 657.7,276.9 657.7,276.9 657.7,277.5 657.7,279.6 658.4,279.6 658.4,276 		"/>
		<polygon class="st0" points="651.5,276.7 652.5,276.7 652.5,279.6 653.2,279.6 653.2,276.7 654.2,276.7 654.2,276 651.5,276 		"/>
	</g>
	<g id="Score-A" transform="translate(514 164)">
		<path id="Oval-14" class="st1" d="M148.1,157.2c14.3-12.4,24.3-28.9,28.6-47.4"/>
		<path id="Path" class="st1" d="M178.8,96c0.2-2.1,0.2-4.3,0.2-6.5c0-22.8-8.7-44.8-24.4-61.4"/>
		<path id="Path-2" class="st2" d="M143.6,18.2C111.7-6,67.6-6.1,35.7,18"/>
		<path id="Path-3" class="st3" d="M24.5,27.9C8.8,44.5,0,66.6,0,89.5c0,2.2,0.1,4.4,0.2,6.5"/>
		<path id="Path-4" class="st4" d="M2.3,109.9c4.3,18.5,14.4,35.1,28.8,47.5"/>
	</g>
	<path id="A" class="st5" d="M608.1,221.9c-3.8-0.2-7.3,1.6-9.5,4.6c-2.2,3.1-3.4,7.4-3.4,12.9c0,11.5,4.3,17.2,12.9,17.2
		c4.5-0.2,8.9-1.1,13.1-2.7v9.1c-4.5,1.8-9.3,2.7-14.1,2.6c-7.5,0-13.2-2.3-17.2-6.8c-4-4.5-5.9-11-5.9-19.5
		c-0.1-4.8,0.9-9.6,2.9-14c1.8-3.9,4.7-7.1,8.4-9.2c3.9-2.2,8.3-3.3,12.8-3.2c5.2,0.1,10.4,1.3,15,3.6l-3.5,8.9
		c-1.9-0.9-3.8-1.7-5.8-2.4C612,222.3,610.1,221.9,608.1,221.9z"/>
	<g id="Equifax_er_rgb" transform="translate(562 316)">
		<path id="Shape" class="st6" d="M83.3,1.1c0.5,0,0.9,0.3,1.1,0.7c0.2,0.5,0.1,1-0.3,1.3c-0.3,0.3-0.9,0.5-1.3,0.3
			c-0.5-0.2-0.8-0.6-0.8-1.1c0-0.3,0.1-0.6,0.3-0.9C82.7,1.3,83,1.1,83.3,1.1z M83.3,1.3c-0.6,0-1,0.5-1,1.1c0,0.5,0.4,0.9,1,1
			c0.3,0,0.5-0.1,0.7-0.3c0.2-0.2,0.3-0.4,0.3-0.7c0-0.3-0.1-0.5-0.3-0.7C83.9,1.4,83.6,1.3,83.3,1.3z M83.1,3h-0.2V1.7
			c0.1,0,0.3,0,0.4,0c0.1,0,0.3,0,0.4,0.1c0.1,0.1,0.1,0.2,0.1,0.3c0,0.2-0.1,0.3-0.3,0.3c0.1,0,0.2,0.1,0.2,0.3
			c0,0.1,0,0.2,0.1,0.3h-0.2c-0.1-0.1-0.1-0.2-0.1-0.3c0-0.1,0-0.1-0.1-0.2c-0.1,0-0.1-0.1-0.2-0.1h-0.2V3z M83.1,2.3h0.2
			c0.2,0,0.3-0.1,0.3-0.2s-0.1-0.2-0.3-0.2h-0.2V2.3z"/>
		<path id="Shape-2" class="st6" d="M0.5,12L3.2,0.2h10.6l-0.5,2.4H7.4L7,4.5h5.1l-0.5,2.4H6.5L5.9,9.5h6L11.4,12H0.5z"/>
		<path id="Shape-3" class="st6" d="M13.3,5.1c1.1-4.2,4-4.1,7.4-4.1c2.4,0,6,0.1,5.4,3.7c0,0-0.1,1-0.4,2.2H22l7.5,8.9h-5l-3.2-3.8
			c-1,0.3-2.1,0.4-3.2,0.4c-2-0.1-5.6,0-5.4-3.4C12.8,7.6,13,6.3,13.3,5.1 M17.9,4.5c-0.5,1.3-0.8,2.6-1,4c-0.3,1.4,0.8,1.9,1.7,1.9
			c1,0,1.9-0.6,2.3-1.5c0.5-1.3,0.8-2.7,1-4C22.2,4.1,21.8,3.3,21,3c-0.3-0.1-0.5-0.1-0.8,0C19.2,2.9,18.3,3.5,17.9,4.5"/>
		<path id="Shape-4" class="st6" d="M28.1,1.5h4.3c0,0-1.4,6-1.7,7.5c0,0.3,0.2,0.7,0.4,0.9c0.3,0.2,0.6,0.4,0.9,0.3
			c0,0,1.7,0.3,2.1-1.1l1.7-7.6h4.4c0,0-1.7,7.6-2,8.5s-1.7,2.2-5,2.4c-0.9,0-1.8,0-2.7-0.1l-3.9-4.6C26.7,7.6,27.7,2.7,28.1,1.5"/>
		<path id="Shape-5" class="st6" d="M41.9,1.5h4.4L44,12h-4.3L41.9,1.5z"/>
		<path id="Shape-6" class="st6" d="M50.1,12h-4.4L48,1.5h9.5l-0.5,2h-5l-0.5,1.9h4.3l-0.4,2h-4.2L50.1,12z"/>
		<path id="Shape-7" class="st6" d="M56,12H53l7.4-10.5h5.3l1.1,8.5l3.6-3.2l-3.5-5.3h5.6l1.7,2.7l2.7-2.7h4.3l-5.6,4.8l3.6,5.6
			h-5.4L72,8.8l-3,3.1h-6.5l-0.2-2.3h-4.6L56,12z M59.1,7.4h2.8l-0.3-3.5L59.1,7.4z"/>
	</g>
</g>
</svg>
