<?xml version="1.0" encoding="utf-8"?>
<!-- Generator: Adobe Illustrator 23.0.2, SVG Export Plug-In . SVG Version: 6.00 Build 0)  -->
<svg version="1.1" id="Layer_1" xmlns="http://www.w3.org/2000/svg" x="0px" y="0px"
     viewBox="0 0 187 171.8" style="enable-background:new 0 0 187 171.8;" xml:space="preserve">
<style type="text/css">
	.st0{fill:none;stroke:#F2F4F7;stroke-width:8;stroke-linecap:round;}
	.st1{fill:none;stroke:#94DE9C;stroke-width:8;stroke-linecap:round;}
	.st2{fill:none;stroke:#B9F1BF;stroke-width:8;stroke-linecap:round;}
	.st3{fill:#001226;}
	.st4{fill:#9E1B32;}
	.st5{fill:#778F9B;}
</style>
<g id="BM-certification-score-D" transform="translate(-744 -160)">
	<g id="Score-A" transform="translate(748 164)">
		<path id="Oval-14" class="st0" d="M148.1,157.2c14.3-12.4,24.3-28.9,28.6-47.3"/>
		<path id="Path" class="st0" d="M178.8,96c0.2-2.1,0.2-4.3,0.2-6.5c0-22.8-8.7-44.8-24.4-61.4"/>
		<path id="Path-2" class="st0" d="M143.6,18.2C111.7-6,67.6-6.1,35.7,18"/>
		<path id="Path-3" class="st1" d="M24.5,27.9C8.8,44.5,0,66.6,0,89.5c0,2.2,0.1,4.4,0.2,6.5"/>
		<path id="Path-4" class="st2" d="M2.3,109.9c4.3,18.5,14.4,35.1,28.8,47.5"/>
	</g>
	<path id="A" class="st3" d="M858.6,238.8c0,8.5-2.4,14.9-7.2,19.4c-4.8,4.5-11.8,6.8-20.9,6.8H816v-51.4h16.1
		c8.4,0,14.9,2.2,19.5,6.6C856.3,224.7,858.6,230.9,858.6,238.8z M847.3,239.1c0-11-4.9-16.6-14.6-16.6h-5.8V256h4.7
		C842.1,256,847.3,250.4,847.3,239.1z"/>
	<g id="Equifax_er_rgb" transform="translate(796 316)">
		<path id="Shape" class="st4" d="M83.3,1.1c0.5,0,0.9,0.3,1.1,0.7c0.2,0.5,0.1,1-0.3,1.3c-0.3,0.3-0.9,0.5-1.3,0.3
			C82.3,3.2,82,2.8,82,2.3c0-0.3,0.1-0.6,0.3-0.9C82.7,1.3,83,1.1,83.3,1.1z M83.3,1.3c-0.6,0-1,0.5-1,1.1c0,0.5,0.4,0.9,1,1
			c0.3,0,0.5-0.1,0.7-0.3s0.3-0.4,0.3-0.7S84.2,1.9,84,1.7C83.9,1.4,83.6,1.3,83.3,1.3z M83.1,3h-0.2V1.7c0.1,0,0.3,0,0.4,0
			s0.3,0,0.4,0.1s0.1,0.2,0.1,0.3c0,0.2-0.1,0.3-0.3,0.3c0.1,0,0.2,0.1,0.2,0.3c0,0.1,0,0.2,0.1,0.3h-0.2c-0.1-0.1-0.1-0.2-0.1-0.3
			s0-0.1-0.1-0.2c-0.1,0-0.1-0.1-0.2-0.1H83L83.1,3L83.1,3z M83.1,2.3h0.2c0.2,0,0.3-0.1,0.3-0.2c0-0.1-0.1-0.2-0.3-0.2h-0.2V2.3z"
			/>
		<path id="Shape-2" class="st4" d="M0.5,12L3.2,0.2h10.6l-0.5,2.4H7.4L7,4.5h5.1l-0.5,2.4H6.5L5.9,9.5h6L11.4,12H0.5z"/>
		<path id="Shape-3" class="st4" d="M13.3,5.1c1.1-4.2,4-4.1,7.4-4.1c2.4,0,6,0.1,5.4,3.7c0,0-0.1,1-0.4,2.2H22l7.5,8.9h-5L21.3,12
			c-1,0.3-2.1,0.4-3.2,0.4c-2-0.1-5.6,0-5.4-3.4C12.8,7.6,13,6.3,13.3,5.1 M17.9,4.5c-0.5,1.3-0.8,2.6-1,4c-0.3,1.4,0.8,1.9,1.7,1.9
			c1,0,1.9-0.6,2.3-1.5c0.5-1.3,0.8-2.7,1-4C22.2,4.1,21.8,3.3,21,3c-0.3-0.1-0.5-0.1-0.8,0C19.2,2.9,18.3,3.5,17.9,4.5"/>
		<path id="Shape-4" class="st4" d="M28.1,1.5h4.3c0,0-1.4,6-1.7,7.5c0,0.3,0.2,0.7,0.4,0.9c0.3,0.2,0.6,0.4,0.9,0.3
			c0,0,1.7,0.3,2.1-1.1l1.7-7.6h4.4c0,0-1.7,7.6-2,8.5s-1.7,2.2-5,2.4c-0.9,0-1.8,0-2.7-0.1l-3.9-4.6C26.7,7.6,27.7,2.7,28.1,1.5"/>
		<path id="Shape-5" class="st4" d="M41.9,1.5h4.4L44,12h-4.3L41.9,1.5z"/>
		<path id="Shape-6" class="st4" d="M50.1,12h-4.4L48,1.5h9.5l-0.5,2h-5l-0.5,1.9h4.3l-0.4,2h-4.2L50.1,12z"/>
		<path id="Shape-7" class="st4" d="M56,12h-3l7.4-10.5h5.3l1.1,8.5l3.6-3.2l-3.5-5.3h5.6l1.7,2.7l2.7-2.7h4.3l-5.6,4.8l3.6,5.6
			h-5.4L72,8.8l-3,3.1h-6.5l-0.2-2.3h-4.6L56,12z M59.1,7.4h2.8l-0.3-3.5L59.1,7.4z"/>
	</g>
	<g>
		<path class="st5" d="M775.7,278.7c0,0.9-0.2,1.6-0.5,2.2s-0.8,1-1.4,1.2l1.7,1.8h-1.6l-1.3-1.6h-0.2c-1.1,0-1.9-0.3-2.5-1
			c-0.6-0.6-0.9-1.5-0.9-2.7s0.3-2.1,0.9-2.7s1.4-0.9,2.5-0.9c1.1,0,1.9,0.3,2.5,1S775.7,277.5,775.7,278.7z M770.2,278.7
			c0,0.9,0.2,1.5,0.5,2c0.4,0.5,0.9,0.7,1.6,0.7c0.7,0,1.2-0.2,1.6-0.7s0.5-1.1,0.5-2c0-0.9-0.2-1.5-0.5-2s-0.9-0.7-1.6-0.7
			c-0.7,0-1.2,0.2-1.6,0.7S770.2,277.8,770.2,278.7z"/>
		<path class="st5" d="M780.9,282.3l-0.2-0.7h-0.1c-0.2,0.3-0.4,0.4-0.7,0.6s-0.6,0.2-1,0.2c-0.7,0-1.1-0.2-1.5-0.5
			s-0.5-0.8-0.5-1.5v-3.5h1.2v3.3c0,0.4,0.1,0.7,0.3,0.9c0.2,0.2,0.4,0.3,0.8,0.3c0.5,0,0.8-0.1,1.1-0.4c0.2-0.3,0.3-0.8,0.3-1.4
			v-2.7h1.2v5.4H780.9z"/>
		<path class="st5" d="M786.8,282.3l-0.2-0.8h0c-0.3,0.3-0.5,0.6-0.8,0.7c-0.3,0.1-0.6,0.2-1,0.2c-0.5,0-0.9-0.1-1.2-0.4
			s-0.4-0.7-0.4-1.2c0-0.6,0.2-1,0.6-1.3s1-0.4,1.9-0.5l0.9,0v-0.3c0-0.3-0.1-0.6-0.2-0.8c-0.2-0.2-0.4-0.3-0.7-0.3
			c-0.3,0-0.5,0-0.8,0.1s-0.5,0.2-0.7,0.3l-0.4-0.8c0.3-0.2,0.6-0.3,1-0.3c0.3-0.1,0.7-0.1,1-0.1c0.7,0,1.2,0.1,1.6,0.4
			s0.5,0.8,0.5,1.4v3.6H786.8z M785.1,281.5c0.4,0,0.8-0.1,1-0.3c0.3-0.2,0.4-0.6,0.4-1v-0.5l-0.7,0c-0.5,0-0.9,0.1-1.2,0.3
			c-0.2,0.2-0.4,0.4-0.4,0.7c0,0.2,0.1,0.4,0.2,0.6C784.6,281.4,784.8,281.5,785.1,281.5z"/>
		<path class="st5" d="M790.4,282.3h-1.1v-7.6h1.1V282.3z"/>
		<path class="st5" d="M792,275.4c0-0.2,0.1-0.4,0.2-0.5s0.3-0.2,0.5-0.2c0.2,0,0.4,0.1,0.5,0.2s0.2,0.3,0.2,0.5
			c0,0.2-0.1,0.3-0.2,0.5c-0.1,0.1-0.3,0.2-0.5,0.2c-0.2,0-0.4-0.1-0.5-0.2C792,275.8,792,275.6,792,275.4z M793.2,282.3H792v-5.4
			h1.1V282.3z"/>
		<path class="st5" d="M796.8,281.4c0.3,0,0.6,0,0.8-0.1v0.9c-0.1,0.1-0.3,0.1-0.5,0.1c-0.2,0-0.4,0.1-0.6,0.1
			c-1.1,0-1.6-0.6-1.6-1.7v-2.9h-0.7v-0.5l0.8-0.4l0.4-1.1h0.7v1.2h1.5v0.9h-1.5v2.9c0,0.3,0.1,0.5,0.2,0.6
			C796.4,281.4,796.6,281.4,796.8,281.4z"/>
		<path class="st5" d="M801.1,282.4c-0.8,0-1.5-0.2-2-0.7c-0.5-0.5-0.7-1.2-0.7-2c0-0.9,0.2-1.6,0.7-2.1s1-0.8,1.8-0.8
			c0.7,0,1.3,0.2,1.7,0.6s0.6,1,0.6,1.8v0.6h-3.6c0,0.5,0.2,0.9,0.4,1.2c0.3,0.3,0.6,0.4,1.1,0.4c0.3,0,0.6,0,0.9-0.1
			c0.3-0.1,0.6-0.2,0.9-0.3v0.9c-0.3,0.1-0.6,0.2-0.8,0.3S801.5,282.4,801.1,282.4z M800.9,277.7c-0.4,0-0.7,0.1-0.9,0.3
			s-0.4,0.6-0.4,1h2.5c0-0.4-0.1-0.8-0.3-1C801.6,277.8,801.3,277.7,800.9,277.7z M800.2,276.2v-0.1c0.2-0.2,0.4-0.5,0.6-0.8
			s0.4-0.5,0.5-0.7h1.3v0.1c-0.2,0.2-0.4,0.5-0.8,0.8c-0.3,0.3-0.6,0.6-0.9,0.7H800.2z"/>
		<path class="st5" d="M809.9,282.4c-0.7,0-1.2-0.2-1.6-0.7h-0.1c0,0.5,0.1,0.7,0.1,0.8v2.2h-1.1v-7.8h0.9c0,0.1,0.1,0.3,0.2,0.7
			h0.1c0.4-0.5,0.9-0.8,1.6-0.8c0.7,0,1.2,0.2,1.6,0.7s0.6,1.2,0.6,2.1s-0.2,1.6-0.6,2.1S810.5,282.4,809.9,282.4z M809.6,277.7
			c-0.5,0-0.8,0.1-1,0.4s-0.3,0.7-0.3,1.3v0.2c0,0.7,0.1,1.1,0.3,1.4c0.2,0.3,0.5,0.4,1,0.4c0.4,0,0.7-0.2,0.9-0.5s0.3-0.8,0.3-1.4
			c0-0.6-0.1-1.1-0.3-1.4C810.3,277.9,810,277.7,809.6,277.7z"/>
		<path class="st5" d="M815.7,282.4c-0.8,0-1.5-0.2-2-0.7c-0.5-0.5-0.7-1.2-0.7-2c0-0.9,0.2-1.6,0.7-2.1s1-0.8,1.8-0.8
			c0.7,0,1.3,0.2,1.7,0.6s0.6,1,0.6,1.8v0.6h-3.6c0,0.5,0.2,0.9,0.4,1.2c0.3,0.3,0.6,0.4,1.1,0.4c0.3,0,0.6,0,0.9-0.1
			c0.3-0.1,0.6-0.2,0.9-0.3v0.9c-0.3,0.1-0.6,0.2-0.8,0.3S816.1,282.4,815.7,282.4z M815.5,277.7c-0.4,0-0.7,0.1-0.9,0.3
			s-0.4,0.6-0.4,1h2.5c0-0.4-0.1-0.8-0.3-1C816.2,277.8,815.9,277.7,815.5,277.7z"/>
		<path class="st5" d="M821.1,281.4c0.3,0,0.6,0,0.8-0.1v0.9c-0.1,0.1-0.3,0.1-0.5,0.1c-0.2,0-0.4,0.1-0.6,0.1
			c-1.1,0-1.6-0.6-1.6-1.7v-2.9h-0.7v-0.5l0.8-0.4l0.4-1.1h0.7v1.2h1.5v0.9h-1.5v2.9c0,0.3,0.1,0.5,0.2,0.6
			C820.7,281.4,820.9,281.4,821.1,281.4z"/>
		<path class="st5" d="M823,275.4c0-0.2,0.1-0.4,0.2-0.5s0.3-0.2,0.5-0.2c0.2,0,0.4,0.1,0.5,0.2s0.2,0.3,0.2,0.5
			c0,0.2-0.1,0.3-0.2,0.5c-0.1,0.1-0.3,0.2-0.5,0.2c-0.2,0-0.4-0.1-0.5-0.2C823,275.8,823,275.6,823,275.4z M824.2,282.3H823v-5.4
			h1.1V282.3z"/>
		<path class="st5" d="M827.8,281.4c0.3,0,0.6,0,0.8-0.1v0.9c-0.1,0.1-0.3,0.1-0.5,0.1c-0.2,0-0.4,0.1-0.6,0.1
			c-1.1,0-1.6-0.6-1.6-1.7v-2.9h-0.7v-0.5l0.8-0.4l0.4-1.1h0.7v1.2h1.5v0.9h-1.5v2.9c0,0.3,0.1,0.5,0.2,0.6
			C827.4,281.4,827.6,281.4,827.8,281.4z"/>
		<path class="st5" d="M832.1,282.4c-0.8,0-1.5-0.2-2-0.7c-0.5-0.5-0.7-1.2-0.7-2c0-0.9,0.2-1.6,0.7-2.1s1-0.8,1.8-0.8
			c0.7,0,1.3,0.2,1.7,0.6s0.6,1,0.6,1.8v0.6h-3.6c0,0.5,0.2,0.9,0.4,1.2c0.3,0.3,0.6,0.4,1.1,0.4c0.3,0,0.6,0,0.9-0.1
			c0.3-0.1,0.6-0.2,0.9-0.3v0.9c-0.3,0.1-0.6,0.2-0.8,0.3S832.5,282.4,832.1,282.4z M831.9,277.7c-0.4,0-0.7,0.1-0.9,0.3
			s-0.4,0.6-0.4,1h2.5c0-0.4-0.1-0.8-0.3-1C832.6,277.8,832.3,277.7,831.9,277.7z"/>
		<path class="st5" d="M839.2,280.7c0,0.5-0.2,0.9-0.6,1.2c-0.4,0.3-0.9,0.4-1.6,0.4c-0.7,0-1.3-0.1-1.7-0.3v-1
			c0.6,0.3,1.2,0.4,1.8,0.4c0.7,0,1.1-0.2,1.1-0.6c0-0.1,0-0.3-0.1-0.3s-0.2-0.2-0.4-0.3s-0.4-0.2-0.7-0.3c-0.6-0.2-1-0.5-1.3-0.7
			c-0.2-0.2-0.3-0.6-0.3-0.9c0-0.5,0.2-0.8,0.6-1.1c0.4-0.3,0.9-0.4,1.5-0.4c0.6,0,1.2,0.1,1.8,0.4l-0.4,0.9
			c-0.6-0.2-1.1-0.4-1.5-0.4c-0.6,0-0.9,0.2-0.9,0.5c0,0.2,0.1,0.3,0.2,0.4c0.2,0.1,0.5,0.3,1,0.5c0.4,0.2,0.8,0.3,1,0.5
			s0.4,0.3,0.4,0.5C839.1,280.3,839.2,280.5,839.2,280.7z"/>
		<path class="st5" d="M845.3,282.4c-0.8,0-1.5-0.2-2-0.7c-0.5-0.5-0.7-1.2-0.7-2c0-0.9,0.2-1.6,0.7-2.1s1-0.8,1.8-0.8
			c0.7,0,1.3,0.2,1.7,0.6s0.6,1,0.6,1.8v0.6h-3.6c0,0.5,0.2,0.9,0.4,1.2c0.3,0.3,0.6,0.4,1.1,0.4c0.3,0,0.6,0,0.9-0.1
			c0.3-0.1,0.6-0.2,0.9-0.3v0.9c-0.3,0.1-0.6,0.2-0.8,0.3S845.7,282.4,845.3,282.4z M845.1,277.7c-0.4,0-0.7,0.1-0.9,0.3
			c-0.2,0.2-0.4,0.6-0.4,1h2.5c0-0.4-0.1-0.8-0.3-1C845.8,277.8,845.5,277.7,845.1,277.7z"/>
		<path class="st5" d="M853.5,282.3h-1.2V279c0-0.4-0.1-0.7-0.3-0.9c-0.2-0.2-0.4-0.3-0.8-0.3c-0.5,0-0.8,0.1-1.1,0.4
			s-0.3,0.8-0.3,1.4v2.7h-1.1v-5.4h0.9l0.2,0.7h0.1c0.2-0.3,0.4-0.5,0.7-0.6s0.6-0.2,1-0.2c1.3,0,1.9,0.7,1.9,2V282.3z"/>
		<path class="st5" d="M857.1,281.4c0.3,0,0.6,0,0.8-0.1v0.9c-0.1,0.1-0.3,0.1-0.5,0.1c-0.2,0-0.4,0.1-0.6,0.1
			c-1.1,0-1.6-0.6-1.6-1.7v-2.9h-0.7v-0.5l0.8-0.4l0.4-1.1h0.7v1.2h1.5v0.9h-1.5v2.9c0,0.3,0.1,0.5,0.2,0.6
			C856.7,281.4,856.9,281.4,857.1,281.4z"/>
		<path class="st5" d="M861.4,282.4c-0.8,0-1.5-0.2-2-0.7c-0.5-0.5-0.7-1.2-0.7-2c0-0.9,0.2-1.6,0.7-2.1s1-0.8,1.8-0.8
			c0.7,0,1.3,0.2,1.7,0.6s0.6,1,0.6,1.8v0.6h-3.6c0,0.5,0.2,0.9,0.4,1.2c0.3,0.3,0.6,0.4,1.1,0.4c0.3,0,0.6,0,0.9-0.1
			c0.3-0.1,0.6-0.2,0.9-0.3v0.9c-0.3,0.1-0.6,0.2-0.8,0.3S861.8,282.4,861.4,282.4z M861.2,277.7c-0.4,0-0.7,0.1-0.9,0.3
			c-0.2,0.2-0.4,0.6-0.4,1h2.5c0-0.4-0.1-0.8-0.3-1C861.8,277.8,861.5,277.7,861.2,277.7z"/>
		<path class="st5" d="M867.5,276.8c0.2,0,0.4,0,0.6,0l-0.1,1.1c-0.2,0-0.3-0.1-0.5-0.1c-0.5,0-0.8,0.1-1.1,0.4
			c-0.3,0.3-0.4,0.7-0.4,1.2v2.8h-1.1v-5.4h0.9l0.2,1h0.1c0.2-0.3,0.4-0.6,0.7-0.8C866.9,276.9,867.2,276.8,867.5,276.8z"/>
		<path class="st5" d="M871.8,282.4c-0.7,0-1.2-0.2-1.6-0.7h-0.1c0,0.5,0.1,0.7,0.1,0.8v2.2h-1.1v-7.8h0.9c0,0.1,0.1,0.3,0.2,0.7
			h0.1c0.4-0.5,0.9-0.8,1.6-0.8c0.7,0,1.2,0.2,1.6,0.7c0.4,0.5,0.6,1.2,0.6,2.1s-0.2,1.6-0.6,2.1C873,282.1,872.5,282.4,871.8,282.4
			z M871.6,277.7c-0.5,0-0.8,0.1-1,0.4c-0.2,0.3-0.3,0.7-0.3,1.3v0.2c0,0.7,0.1,1.1,0.3,1.4c0.2,0.3,0.5,0.4,1,0.4
			c0.4,0,0.7-0.2,0.9-0.5s0.3-0.8,0.3-1.4c0-0.6-0.1-1.1-0.3-1.4C872.3,277.9,872,277.7,871.6,277.7z"/>
		<path class="st5" d="M878.1,276.8c0.2,0,0.4,0,0.6,0l-0.1,1.1c-0.2,0-0.3-0.1-0.5-0.1c-0.5,0-0.8,0.1-1.1,0.4
			c-0.3,0.3-0.4,0.7-0.4,1.2v2.8h-1.1v-5.4h0.9l0.2,1h0.1c0.2-0.3,0.4-0.6,0.7-0.8C877.4,276.9,877.7,276.8,878.1,276.8z"/>
		<path class="st5" d="M879.6,275.4c0-0.2,0.1-0.4,0.2-0.5c0.1-0.1,0.3-0.2,0.5-0.2c0.2,0,0.4,0.1,0.5,0.2c0.1,0.1,0.2,0.3,0.2,0.5
			c0,0.2-0.1,0.3-0.2,0.5c-0.1,0.1-0.3,0.2-0.5,0.2c-0.2,0-0.4-0.1-0.5-0.2C879.6,275.8,879.6,275.6,879.6,275.4z M880.8,282.3h-1.1
			v-5.4h1.1V282.3z"/>
		<path class="st5" d="M886.1,280.7c0,0.5-0.2,0.9-0.6,1.2c-0.4,0.3-0.9,0.4-1.7,0.4c-0.7,0-1.3-0.1-1.7-0.3v-1
			c0.6,0.3,1.2,0.4,1.8,0.4c0.7,0,1.1-0.2,1.1-0.6c0-0.1,0-0.3-0.1-0.3s-0.2-0.2-0.4-0.3s-0.4-0.2-0.7-0.3c-0.6-0.2-1-0.5-1.3-0.7
			c-0.2-0.2-0.3-0.6-0.3-0.9c0-0.5,0.2-0.8,0.6-1.1c0.4-0.3,0.9-0.4,1.5-0.4c0.6,0,1.2,0.1,1.8,0.4l-0.4,0.9
			c-0.6-0.2-1.1-0.4-1.5-0.4c-0.6,0-0.9,0.2-0.9,0.5c0,0.2,0.1,0.3,0.2,0.4c0.2,0.1,0.5,0.3,1,0.5c0.4,0.2,0.8,0.3,1,0.5
			s0.4,0.3,0.4,0.5C886,280.3,886.1,280.5,886.1,280.7z"/>
		<path class="st5" d="M889.7,282.4c-0.8,0-1.5-0.2-2-0.7c-0.5-0.5-0.7-1.2-0.7-2c0-0.9,0.2-1.6,0.7-2.1s1-0.8,1.8-0.8
			c0.7,0,1.3,0.2,1.7,0.6s0.6,1,0.6,1.8v0.6h-3.6c0,0.5,0.2,0.9,0.4,1.2c0.3,0.3,0.6,0.4,1.1,0.4c0.3,0,0.6,0,0.9-0.1
			c0.3-0.1,0.6-0.2,0.9-0.3v0.9c-0.3,0.1-0.6,0.2-0.8,0.3S890,282.4,889.7,282.4z M889.4,277.7c-0.4,0-0.7,0.1-0.9,0.3
			c-0.2,0.2-0.4,0.6-0.4,1h2.5c0-0.4-0.1-0.8-0.3-1C890.1,277.8,889.8,277.7,889.4,277.7z"/>
		<path class="st5" d="M896.7,280.7c0,0.5-0.2,0.9-0.6,1.2c-0.4,0.3-0.9,0.4-1.7,0.4c-0.7,0-1.3-0.1-1.7-0.3v-1
			c0.6,0.3,1.2,0.4,1.8,0.4c0.7,0,1.1-0.2,1.1-0.6c0-0.1,0-0.3-0.1-0.3s-0.2-0.2-0.4-0.3s-0.4-0.2-0.7-0.3c-0.6-0.2-1-0.5-1.3-0.7
			c-0.2-0.2-0.3-0.6-0.3-0.9c0-0.5,0.2-0.8,0.6-1.1c0.4-0.3,0.9-0.4,1.5-0.4c0.6,0,1.2,0.1,1.8,0.4l-0.4,0.9
			c-0.6-0.2-1.1-0.4-1.5-0.4c-0.6,0-0.9,0.2-0.9,0.5c0,0.2,0.1,0.3,0.2,0.4c0.2,0.1,0.5,0.3,1,0.5c0.4,0.2,0.8,0.3,1,0.5
			s0.4,0.3,0.4,0.5C896.6,280.3,896.7,280.5,896.7,280.7z"/>
		<path class="st5" d="M899.5,278.9l-1.2-3.5h0c0,0.5,0,1,0,1.5v2h-0.6v-4.2h1l1.2,3.3h0l1.2-3.3h1v4.2h-0.7v-2.1c0-0.2,0-0.5,0-0.8
			c0-0.3,0-0.5,0-0.6h0l-1.2,3.5H899.5z"/>
		<path class="st5" d="M904.8,275.3c-0.4,0-0.7,0.1-0.9,0.4c-0.2,0.3-0.3,0.7-0.3,1.1c0,0.5,0.1,0.9,0.3,1.2
			c0.2,0.3,0.5,0.4,0.9,0.4c0.2,0,0.3,0,0.5-0.1s0.3-0.1,0.5-0.1v0.6c-0.3,0.1-0.7,0.2-1.1,0.2c-0.6,0-1.1-0.2-1.4-0.6
			s-0.5-0.9-0.5-1.6c0-0.4,0.1-0.8,0.2-1.1s0.4-0.6,0.7-0.7c0.3-0.2,0.7-0.3,1.1-0.3c0.4,0,0.8,0.1,1.2,0.3l-0.2,0.6
			c-0.1-0.1-0.3-0.1-0.4-0.2C905.1,275.3,905,275.3,904.8,275.3z"/>
	</g>
</g>
</svg>
